<?xml version="1.0" encoding="UTF-8"?>
<svg id="Layer_2" data-name="Layer 2" xmlns="http://www.w3.org/2000/svg" viewBox="0 0 816.02 310.13">
  <defs>
    <style>
      .cls-1 {
        fill: #7b7b7b;
      }
    </style>
  </defs>
  <g id="Layer_1-2" data-name="Layer 1">
    <g>
      <path class="cls-1" d="M409.06,0c10.66,0,16.81.02,18.46.06,30.95.82,61.64,4.01,92.08,9.57,32.78,5.98,66.22,15.61,95.68,31.33,17.61,9.39,38.82,25.09,43.91,45.62,9.85,39.75-42.83,66.25-71.66,77.19-15.82,6.01-32.13,10.91-48.92,14.7-.46.11-.93-.11-1.14-.53-10.85-21.49-24.14-41.09-39.85-58.82-.26-.3-.12-.77.27-.87,12.21-2.91,23.9-6.95,35.05-12.1,12.79-5.91,27.18-15.02,32.22-28.67,4.24-11.5-2.96-22.92-11.94-30.22-7.59-6.17-16.27-11.24-26.05-15.19-37.13-15.02-78.4-19.58-118.11-19.58s-80.98,4.56-118.1,19.58c-9.78,3.96-18.47,9.02-26.05,15.2-8.98,7.3-16.18,18.72-11.94,30.22,5.04,13.65,19.43,22.76,32.22,28.66,11.15,5.16,22.84,9.19,35.05,12.1.39.1.53.57.27.87-15.71,17.73-29,37.34-39.85,58.82-.21.42-.68.64-1.14.53-16.79-3.79-33.1-8.69-48.92-14.69-28.83-10.94-81.51-37.44-71.66-77.19,5.09-20.53,26.3-36.23,43.91-45.62,29.46-15.72,62.9-25.35,95.68-31.34C328.97,4.07,359.66.88,390.6.07c1.66-.05,7.81-.07,18.46-.07h0Z"/>
      <path class="cls-1" d="M51.88,267.39c7.69,6.81,10.23,15.25,7.64,25.3-1.95,7.57-6.35,12.7-13.18,15.39-3.55,1.39-8.54,2.08-14.97,2.05-16.45-.08-26.66-.14-30.65-.18-.4,0-.72-.33-.72-.73l.07-82.48c0-.45.47-.74.87-.54.08.03,10.44.04,31.08.01,16.11-.02,28.27,8.91,27.12,26.25-.35,5.2-2.77,9.91-7.27,14.12-.24.22-.23.6,0,.81M16.42,242.3l-.06,16.7c0,.39.31.7.69.7l15.76.05c5.37.02,9.74-3.77,9.76-8.46v-1.08c.02-4.7-4.32-8.52-9.7-8.54l-15.76-.05c-.38,0-.69.3-.69.68M16.35,275.82l.06,18.22c0,.38.32.7.7.7l16.51-.06c5.58-.02,10.08-4.05,10.06-9.01v-1.68c-.02-4.95-4.55-8.95-10.12-8.93l-16.51.06c-.39,0-.7.31-.7.7h0Z"/>
      <path class="cls-1" d="M88.71,309.33c0,.36-.3.66-.66.66h-15.36c-.36,0-.66-.3-.66-.66v-82.44c0-.36.3-.66.66-.66h15.36c.36,0,.66.3.66.66v82.44h0Z"/>
      <path class="cls-1" d="M122.2,294.62h33.63c.31,0,.57.26.57.57v13.98c0,.45-.37.82-.82.82h-53.78c-.5,0-.88-.43-.83-.92.19-1.86.23-5.13.12-9.81-.04-1.76.31-3.23,1.04-4.42,3.15-5.11,14.22-22.64,33.2-52.58.19-.3-.03-.69-.38-.69h-31.64c-.43,0-.77-.34-.77-.77v-14.16c0-.24.19-.43.42-.43h52.9c.32,0,.58.26.58.59-.03,3.07-.02,6.39.03,9.96.02,1.45-.23,2.6-.76,3.44-13.85,22.04-25.13,39.97-33.86,53.78-.17.28.02.64.35.64h0Z"/>
      <path class="cls-1" d="M200.01,268.24c0,7.66.33,13.18.97,16.56,1.8,9.4,10.5,14.45,19.43,12.21,5.71-1.44,9.54-5.47,11.5-12.1.17-.55.67-.93,1.25-.93h11c.32,0,.57.29.52.6-1.28,7.67-4.58,13.67-9.89,18-12.01,9.8-31.77,7.74-41.51-4.57-6.52-8.25-5.71-19.94-5.71-29.77s-.82-21.52,5.71-29.77c9.73-12.32,29.49-14.38,41.5-4.58,5.32,4.33,8.62,10.33,9.9,18,.05.31-.2.6-.52.6h-11c-.58,0-1.09-.38-1.25-.93-1.96-6.63-5.8-10.66-11.5-12.1-8.93-2.24-17.63,2.81-19.43,12.21-.65,3.38-.97,8.91-.97,16.57h0Z"/>
      <path class="cls-1" d="M314.38,281.97c-.05,14.71-12.01,26.59-26.72,26.54h-3.78c-14.71-.07-26.59-12.03-26.54-26.74l.1-27.3c.05-14.71,12.01-26.59,26.72-26.54h3.78c14.71.07,26.59,12.03,26.54,26.74l-.1,27.3M269.54,268.22c0,5.54.19,10.18.56,13.92.93,9.37,6.07,14.49,15.42,15.38.12.01.23.01.35.01s.23,0,.35-.01c9.36-.89,14.5-6.02,15.42-15.38.37-3.75.56-8.38.56-13.92s-.19-10.18-.56-13.92c-.93-9.37-6.07-14.49-15.42-15.38-.12-.01-.23-.01-.35-.01s-.23,0-.35.01c-9.35.89-14.5,6.02-15.42,15.38-.37,3.75-.56,8.38-.56,13.92h0Z"/>
      <path class="cls-1" d="M519.34,268.23c0-9.83-.82-21.51,5.7-29.76,9.72-12.31,29.47-14.38,41.48-4.59,5.32,4.33,8.62,10.33,9.9,17.99.05.31-.2.6-.52.6h-10.99c-.58,0-1.09-.37-1.25-.92-1.97-6.63-5.8-10.66-11.51-12.09-8.92-2.24-17.62,2.81-19.41,12.21-.64,3.38-.96,8.9-.96,16.56s.33,13.17.98,16.56c1.8,9.39,10.49,14.44,19.42,12.19,5.7-1.44,9.53-5.47,11.49-12.1.17-.55.67-.93,1.25-.93h10.99c.33,0,.58.29.52.6-1.27,7.66-4.57,13.66-9.87,18-12.01,9.8-31.76,7.74-41.5-4.56-6.52-8.24-5.71-19.93-5.72-29.76h0Z"/>
      <path class="cls-1" d="M739.87,281.92c-.05,14.72-12.03,26.62-26.75,26.57h-3.84c-14.72-.07-26.62-12.05-26.57-26.77l.09-27.18c.05-14.72,12.03-26.62,26.75-26.57h3.84c14.72.07,26.62,12.05,26.57,26.77l-.09,27.18M694.98,268.23c0,5.53.2,10.17.57,13.91.93,9.37,6.08,14.5,15.43,15.37.12.01.23.02.35.02s.23-.01.35-.02c9.36-.89,14.49-6.02,15.41-15.39.37-3.74.55-8.38.55-13.91s-.19-10.18-.56-13.92c-.94-9.37-6.08-14.49-15.44-15.37-.11-.01-.23-.02-.35-.02-.11,0-.23,0-.35.02-9.35.89-14.49,6.02-15.41,15.39-.37,3.74-.55,8.38-.55,13.92h0Z"/>
      <path class="cls-1" d="M666.56,307.43c0,.41-.34.75-.75.75h-10.86c-.41,0-.75-.34-.75-.75v-78.3c0-.41.34-.75.75-.75h10.86c.41,0,.75.34.75.75v78.3h0Z"/>
      <path class="cls-1" d="M756.06,307.86v-79.12c0-.18.14-.32.32-.32h11.06c.11,0,.21.05.26.14l35.36,53.83c.18.26.59.14.59-.18v-53.45c0-.18.14-.32.32-.32h11.73c.18,0,.32.14.32.32v79.15c0,.18-.14.32-.32.32h-10.59c-.11,0-.21-.05-.26-.14l-35.49-54.02c-.18-.26-.59-.14-.59.18v53.61c0,.18-.14.32-.32.32h-12.07c-.18,0-.32-.14-.32-.32h0Z"/>
      <path class="cls-1" d="M380.51,308.18h-49.36c-.36,0-.65-.29-.65-.65v-78.46c0-.36.29-.65.65-.65h11.58c.36,0,.65.29.65.65v67.02c0,.36.29.65.65.65h36.48c.36,0,.65.29.65.65v10.14c0,.36-.29.65-.65.65h0Z"/>
      <path class="cls-1" d="M394.87,228.41h11.08c.36,0,.65.29.65.65v67.03c0,.36.29.65.65.65h36.94c.36,0,.65.29.65.65v10.15c0,.36-.29.65-.65.65h-49.32c-.36,0-.65-.29-.65-.65v-78.48c0-.36.29-.65.65-.65h0Z"/>
      <path class="cls-1" d="M470.44,296.74h37.32c.36,0,.65.29.65.65v10.15c0,.36-.29.65-.65.65h-49.67c-.36,0-.65-.29-.65-.65v-78.46c0-.36.29-.65.65-.65h49.68c.36,0,.65.29.65.65v10.08c0,.36-.29.65-.65.65h-37.31c-.36,0-.65.29-.65.65v21.15c0,.36.29.65.65.65h31.95c.36,0,.65.29.65.65v10c0,.36-.29.65-.65.65h-31.97c-.36,0-.65.29-.65.65v21.88c0,.36.29.65.65.65h0Z"/>
      <path class="cls-1" d="M613.1,228.41c17.05.01,26.24.03,27.57.08.31.01.55.26.55.56v10.14c0,.34-.28.61-.62.61h-20.59c-.36,0-.65.29-.65.65v67.16c-.01.29-.24.54-.53.57-.12.01-2.03.01-5.74.01s-5.61,0-5.73-.02c-.3-.02-.52-.27-.52-.56v-67.16c.01-.36-.29-.65-.64-.65h-20.59c-.35,0-.62-.28-.62-.62v-10.14c0-.3.24-.55.54-.56,1.33-.05,10.52-.07,27.57-.07h0Z"/>
    </g>
  </g>
</svg>
