<?xml version="1.0" encoding="UTF-8"?>
<svg id="Layer_2" data-name="Layer 2" xmlns="http://www.w3.org/2000/svg" viewBox="0 0 696.77 239.51">
  <defs>
    <style>
      .cls-1 {
        fill: #8e8e8e;
      }
    </style>
  </defs>
  <g id="Layer_1-2" data-name="Layer 1">
    <g>
      <path class="cls-1" d="M482.58,0c24.89,2.24,45.59,13.28,62.12,33.1.54.63.57,1.57.09,2.24-6.38,9.12-10.89,19.6-13.52,31.44-.13.59-.65,1.02-1.28,1.02h-15c-1.48,0-2.85-.81-3.57-2.09-9.12-16.29-23.19-22.99-42.15-20.12-24.87,3.77-37.12,35.21-27.35,57.64,5.9,13.54,16.2,21.1,30.85,22.69,18.22,1.96,28.18-6.34,38.76-19.84.7-.87,1.74-1.39,2.85-1.39h15.35c.74,0,1.39.54,1.57,1.28,2.42,11.26,6.84,21.53,13.26,30.88.35.52.33,1.2-.07,1.68-11.17,13.54-24.63,22.91-40.39,28.11-55.15,18.16-112.29-20.84-113.55-79.15-.87-41.72,24.41-74.79,65.19-85.31,1.98-.5,6.84-1.22,14.57-2.18h12.28Z"/>
      <path class="cls-1" d="M366.63,163.48c-.94,0-1.68-.74-1.68-1.68v-13.87c0-2.22-2.98-2.94-3.98-.96-6.05,11.87-16.53,17.81-29.96,20.32-67.63,12.61-110.09-44.92-93.54-108.17.3-1.15,1.18-2.05,2.33-2.4,8.19-2.42,16.5-3.59,24.93-3.51,1.98.02,3.61-1.52,3.68-3.51l1.31-34.34c.02-.87.52-1.68,1.28-2.09,19.6-10.91,40.3-14.09,62.14-9.49,12.35,2.59,21.16,8.82,27.81,19.84.35.59.89.94,1.61,1.09,1.22.24,2.37-.74,2.37-2.02.02-5.53.04-9.99.09-13.37.02-.91.76-1.65,1.68-1.65h38.15c.72,0,1.28.57,1.28,1.28v14.89c0,.83-.26,1.61-.76,2.26-27.67,35.69-27.87,82.35.09,117.93.44.57.68,1.26.68,1.98v15.68c0,.98-.78,1.79-1.76,1.79h-37.73M319.87,42.35c-23.51.13-42.45,19.53-42.32,43.33.13,23.82,19.27,43.02,42.77,42.89,23.51-.13,42.45-19.53,42.32-43.33-.13-23.82-19.27-43.02-42.77-42.89h0Z"/>
      <path class="cls-1" d="M0,92.52v-12.15C1.79,53.87,14.41,28.37,36.84,14.33,61.75-1.28,105.15-5.01,124.9,21.86c1.22,1.65,3.83.78,3.83-1.26v-10.8c0-1.2.96-2.16,2.16-2.16h37.65c.74,0,1.35.61,1.35,1.35.17,61.25.09,113.79-.24,157.62-.15,18.55-7.36,33.77-21.62,45.66-25.34,21.14-61.27,26.76-92.47,19.62-24.58-5.64-45.49-21.21-51.39-46.03-.39-1.61.83-3.16,2.48-3.16h46.16c1.26,0,2.44.67,3.09,1.76,8.67,14.76,29.24,16.64,43.87,11.65,20.86-7.08,27.98-28.96,25.65-49.17-.17-1.52-2.16-2.03-3.03-.74-14.24,21.14-42.81,26.46-65.98,19.99C23.28,156.95,2.63,126.03,0,92.52M68.48,86.81c0,2.83-.2,5.07-.63,6.73-3.53,13.26-8.58,25.89-15.18,37.87-1.33,2.42-.63,4.27,1.46,5.75,1.02.74,2.42.76,3.48.04,24.89-17.03,48.06-32.9,69.46-47.64.91-.61,1.35-1.59,1.35-2.94s-.46-2.31-1.35-2.92c-21.51-14.61-44.77-30.35-69.76-47.23-1.05-.72-2.44-.7-3.48.07-2.07,1.5-2.77,3.35-1.42,5.75,6.66,11.95,11.78,24.54,15.39,37.78.44,1.65.67,3.9.67,6.75h0Z"/>
      <path class="cls-1" d="M696.77,81.74v12.22l-.83,4.68c-.2,1.13-1.18,1.94-2.31,1.94h-112.77c-.52,0-.91.48-.83,1,2.77,14.39,10.89,23.39,24.41,26.96,16.22,4.27,27.59-1.76,39.13-12.67.57-.52,1.28-.83,2.05-.83h43.31c1.26,0,2.09,1.31,1.57,2.44-15.66,34.12-47.55,56.35-85.96,50.43-57.98-8.93-86.9-72.38-58.85-123,26.54-47.86,90.43-56.55,128.73-16.53,13.24,13.8,20.69,31.59,22.36,53.37M578.03,72.4l75.29.13s.04-.02.04-.04v-.17c.02-18.07-16.72-32.73-37.41-32.77h-.48c-20.69-.04-37.47,14.57-37.49,32.64v.17s.02.04.04.04h0Z"/>
      <path class="cls-1" d="M218.94,163.48h-40.48c-.78,0-1.42-.63-1.42-1.42V8.6c0-.52.44-.96.96-.96h38.98c.65,0,1.2.54,1.2,1.2v13.85c0,2.11,2.79,2.87,3.85,1.05,8.64-14.74,24.82-16.33,40.72-15.9.72.02,1.28.63,1.26,1.35l-1.39,37.21c-.04.76-.7,1.33-1.46,1.24-1.76-.22-4.59-.09-8.49.37-18.53,2.2-32.66,9.08-32.29,30.37.09,5.49.09,33.38-.02,83.68,0,.78-.63,1.42-1.42,1.42h0Z"/>
      <path class="cls-1" d="M310.3,239.51h-7.43c-8.99-1.89-15.52-6.31-19.64-13.26-11.98-20.23,4.73-44.7,27.61-41.24,8.25,1.24,14.91,5.88,19.99,13.94.09.17-.02.37-.2.37h-8.51c-.39,0-.78-.17-1.02-.48-11.61-13.63-31.12-6.23-33.84,10.19-3.18,19.2,19.31,31.27,33.53,16.72.26-.26.59-.39.96-.39h8.49c.31,0,.48.35.31.59-5.29,7.6-12.04,12.11-20.25,13.57h0Z"/>
      <path class="cls-1" d="M364.26,239.51h-7.49c-18.51-4.22-29.35-20.92-21.6-38.61,7.12-16.16,28.79-21.62,42.48-10.06,18.75,15.83,10.17,43.77-13.39,48.66M380.37,212.14c0-11.08-8.99-20.08-20.08-20.08s-20.08,8.99-20.08,20.08,8.99,20.08,20.08,20.08,20.08-8.99,20.08-20.08h0Z"/>
      <path class="cls-1" d="M520.05,239.51h-7.21c-22.23-4.83-32.25-29.92-15.57-46.77,12.98-13.09,33.62-9.86,43.05,5.86.2.33-.04.74-.41.74h-7.23c-.83,0-1.59-.35-2.16-.94-18.2-19.88-45.4,8.23-28.26,27.52,7.8,8.75,20.14,8.67,28.15-.07.24-.28.59-.44.96-.44h8.62c.28,0,.46.33.3.59-5.16,7.56-11.91,12.06-20.25,13.5h0Z"/>
      <path class="cls-1" d="M619.66,239.51h-7.47c-16.59-3.96-24.54-13.94-23.82-29.9.33-7.29,3.96-13.65,10.95-19.1,22.64-17.64,52.74,6.75,41.65,32.94-3.64,8.62-10.73,13.98-21.32,16.05M616.06,191.76c-10.9-.07-19.8,8.99-19.89,20.24-.09,11.26,8.71,20.43,19.61,20.52,10.9.07,19.8-8.99,19.89-20.24.09-11.26-8.71-20.43-19.61-20.52h0Z"/>
      <path class="cls-1" d="M419.24,238.58h-23.97c-.59,0-1.05-.46-1.05-1.04v-50.78c0-.59.46-1.05,1.05-1.05h5.53c.59,0,1.05.46,1.05,1.05v43.72c0,.59.46,1.05,1.05,1.05h16.35c.59,0,1.05.46,1.05,1.05v4.96c0,.59-.46,1.04-1.05,1.04h0Z"/>
      <path class="cls-1" d="M450.2,231.39c.67,0,1.2.5,1.22,1.15l.02,4.7c0,.72-.59,1.28-1.28,1.28l-23.93.02c-.54,0-.96-.41-.96-.96l-.02-50.76c0-.7.57-1.28,1.26-1.28l5.01-.07c.76-.02,1.39.61,1.39,1.39v43.42c0,.72.59,1.28,1.31,1.26l15.98-.17h0Z"/>
      <path class="cls-1" d="M484.82,212.08c0,.59,0,1.37-.02,2.35-.02.65-.57,1.18-1.22,1.18h-18.81c-.37,0-.67.31-.67.68v14.31c0,.44.37.81.81.81h18.6c.72,0,1.31.59,1.31,1.31v4.46c0,.74-.61,1.35-1.35,1.35l-26.24-.02c-.48,0-.89-.39-.89-.87-.02-.2-.02-8.71-.02-25.56s0-25.34.02-25.54c.02-.48.41-.87.89-.87l26.24-.02c.74,0,1.35.61,1.35,1.35v4.46c0,.72-.59,1.31-1.31,1.31h-18.6c-.44,0-.81.37-.81.81v14.31c0,.37.3.68.67.68h18.81c.65,0,1.2.52,1.22,1.18.02.98.02,1.76.02,2.37h0Z"/>
      <path class="cls-1" d="M555.87,185.8c4.46.04,8.64-.02,12.59-.22.81-.04,1.48.59,1.48,1.42v4.46c0,.74-.61,1.35-1.37,1.35h-7.38c-.72,0-1.31.59-1.31,1.31v43c0,.78-.63,1.44-1.42,1.46-.44,0-1.24.02-2.4.02h-2.42c-.78-.02-1.42-.67-1.42-1.46l-.3-43c0-.72-.59-1.31-1.31-1.28l-7.38.04c-.76,0-1.37-.59-1.37-1.35l-.04-4.46c0-.81.68-1.46,1.48-1.44,3.94.17,8.12.22,12.56.15h0Z"/>
      <path class="cls-1" d="M582.15,237.71c0,.5-.39.89-.89.89h-5.97c-.5,0-.89-.39-.89-.89v-51.17c0-.5.39-.89.89-.89h5.97c.5,0,.89.39.89.89v51.17h0Z"/>
      <path class="cls-1" d="M666.3,213.93c-2.66-4.12-5.73-8.95-9.21-14.48-.33-.52-1.13-.28-1.13.35v37.78c0,.52-.44.96-.96.96h-5.81c-.54,0-1-.46-1-1.02v-50.52c0-.83.68-1.48,1.48-1.48l5.31.07c.85,0,1.65.41,2.16,1.13.17.22,5.2,8.03,15.09,23.43,2.66,4.12,5.73,8.95,9.21,14.48.33.52,1.13.28,1.13-.33v-37.78c0-.52.44-.96.96-.96h5.81c.54,0,1,.46,1,1.02v50.52c0,.83-.65,1.48-1.48,1.48l-5.31-.07c-.85,0-1.65-.44-2.16-1.13-.17-.22-5.2-8.03-15.09-23.45h0Z"/>
    </g>
  </g>
</svg>