<?xml version="1.0" encoding="UTF-8"?>
<svg id="Layer_1" xmlns="http://www.w3.org/2000/svg" version="1.1" viewBox="0 0 411.5 140.2">
  <!-- Generator: Adobe Illustrator 30.1.0, SVG Export Plug-In . SVG Version: 2.1.1 Build 136)  -->
  <defs>
    <style>
      .st0 {
        fill: #8e8e8e;
      }
    </style>
  </defs>
  <g>
    <path class="st0" d="M156.7,0h-11l-54.7,103.1h18l14.1-26.6h48l11.3,26.6h18.1L156.7,0ZM131.7,60.3l18-33.9,14.4,33.9h-32.4Z"/>
    <polygon class="st0" points="256.8 50.6 224.2 .6 211.2 .6 205.9 103 222.3 103 225.9 33.7 251.9 73.7 259.1 73.7 289.3 33.7 285.6 103 302 103 307.4 .6 294.5 .6 256.8 50.6"/>
    <path class="st0" d="M364.3.2c-28.4,0-51,22.1-52.6,51.5v.2c-1.5,29.3,18.7,51.5,47.2,51.5s51-22.1,52.6-51.5v-.2C413,22.3,392.7.2,364.3.2ZM395.2,51.8v.2c-.9,17.2-13.6,35.4-35.4,35.4s-32.8-18.1-31.9-35.6v-.2c.9-17.2,13.6-35.4,35.4-35.4,21.2-.1,32.8,18,31.9,35.6Z"/>
    <g>
      <path class="st0" d="M54.2,93.1l.2.2c5.8,6.4,12.9,10,20.6,10.2,3.2,0,6.4-.4,9.6-1.4l-36.9-41c-3.7,11.5-1.6,23.1,6.5,32"/>
      <path class="st0" d="M80.3,10.6C73.6,3.6,63.4,0,49.9,0H4L0,76.4c-.3,8.4,2.2,15.7,7.4,21.1,2.2,2.4,4.9,4.3,7.9,5.9l4.6-86.9h28.9c8.6,0,22.8,2.1,22.1,16v.3l-1.4,27.2c10.8-5.7,17.5-15.4,18.1-27.4v-.3c.5-8.6-2-16.2-7.3-21.7"/>
    </g>
  </g>
  <g>
    <path class="st0" d="M.8,124.1h8c2,0,3.3.5,4.2,1.4.6.6.9,1.5.9,2.5h0c-.1,1.8-1.2,2.9-2.6,3.5,1.9.6,3,1.7,2.9,3.8h0c-.1,2.7-2.4,4.3-6.1,4.3H0l.8-15.5ZM9.5,128.9c0-.9-.6-1.3-1.9-1.3h-2.8v2.7c0,0,2.6,0,2.6,0,1.3,0,2.1-.4,2.1-1.4h0ZM7.8,133.3h-3.3v2.9c0,0,3.2,0,3.2,0,1.3,0,2.1-.5,2.1-1.4h0c.1-.9-.6-1.5-2-1.5"/>
    <polygon class="st0" points="25.9 124.1 38.4 124.1 38.2 127.7 30 127.7 29.9 130.1 37.3 130.1 37.2 133.5 29.7 133.5 29.6 136 37.9 136 37.7 139.6 25.1 139.6 25.9 124.1"/>
    <polygon class="st0" points="70.7 133.8 65.3 124.1 70.2 124.1 73.1 129.8 76.6 124.1 81.4 124.1 75 133.8 74.7 139.6 70.4 139.6 70.7 133.8"/>
    <path class="st0" d="M92.2,132.2h0c.2-4.5,4-8.1,8.8-8.1s8.1,3.6,7.9,8h0c-.2,4.5-4,8.1-8.8,8.1-4.8,0-8.1-3.5-7.9-8M104.5,132.2h0c0-2.3-1.4-4.2-3.7-4.2s-4,1.9-4.2,4.1h0c0,2.2,1.4,4.2,3.8,4.2,2.3,0,4-1.8,4.1-4.1"/>
    <path class="st0" d="M120.1,132.8l.5-8.7h4.3l-.5,8.6c0,2.2,1,3.3,2.7,3.3s2.9-1,3-3.2l.5-8.7h4.3l-.5,8.6c-.3,5-3.2,7.2-7.6,7.2-4.3,0-6.9-2.2-6.7-7.1"/>
    <path class="st0" d="M146.3,124.1h7.3c2.4,0,4,.6,5,1.7.9.9,1.3,2.1,1.2,3.6h0c-.1,2.4-1.5,4-3.4,4.8l3.4,5.4h-4.9l-2.9-4.7h-2l-.2,4.7h-4.3l.8-15.5ZM153,131.6c1.4,0,2.4-.7,2.4-1.8h0c.1-1.2-.8-1.9-2.2-1.9h-2.8l-.2,3.7h2.8Z"/>
    <path class="st0" d="M186.8,132.2h0c.2-4.5,4-8.1,8.8-8.1s8.1,3.6,7.9,8h0c-.2,4.5-4,8.1-8.8,8.1-4.7,0-8.1-3.5-7.9-8M199.1,132.2h0c.1-2.3-1.4-4.2-3.7-4.2s-4,1.9-4.2,4.1h0c-.1,2.2,1.4,4.2,3.8,4.2,2.4,0,4-1.8,4.1-4.1"/>
    <polygon class="st0" points="215.2 124.2 219.8 124.2 222 133.1 225.5 124.1 229.2 124.1 231.7 133.1 234.9 124.2 239.3 124.2 233.3 139.8 229.6 139.8 226.9 130.8 223.3 139.8 219.6 139.8 215.2 124.2"/>
    <polygon class="st0" points="250.6 124.1 254.6 124.1 260.5 132.3 261 124.1 265.2 124.1 264.4 139.6 260.7 139.6 254.5 131.1 254 139.6 249.8 139.6 250.6 124.1"/>
    <path class="st0" d="M292,124.1h8c1.9,0,3.3.5,4.2,1.4.6.6.9,1.5.9,2.5h0c-.1,1.8-1.2,2.9-2.6,3.5,1.8.6,3,1.7,2.9,3.8h0c-.2,2.7-2.4,4.3-6.1,4.3h-8l.7-15.5ZM300.7,128.9c0-.9-.6-1.3-1.9-1.3h-2.8v2.7c-.1,0,2.6,0,2.6,0,1.2,0,2-.4,2.1-1.4h0ZM298.9,133.3h-3.3l-.2,2.9h3.3c1.3,0,2.1-.5,2.1-1.4h0c.2-.9-.4-1.5-1.9-1.5"/>
    <path class="st0" d="M317.1,124.1h7.3c2.4,0,4,.6,5,1.7.9.9,1.3,2.1,1.2,3.6h0c-.1,2.4-1.5,4-3.4,4.8l3.4,5.4h-4.9l-2.9-4.7h-1.9l-.2,4.7h-4.3l.7-15.5ZM323.9,131.6c1.4,0,2.3-.7,2.4-1.8h0c.1-1.2-.8-1.9-2.2-1.9h-2.8l-.2,3.7h2.8Z"/>
    <path class="st0" d="M349.2,124.1h4.1l5.8,15.6h-4.6l-1-2.8h-6l-1.3,2.8h-4.5l7.5-15.6ZM352.5,133.6l-1.5-4.4-2,4.4h3.5Z"/>
    <polygon class="st0" points="371.2 124.1 375.2 124.1 381.1 132.3 381.6 124.1 385.8 124.1 385 139.6 381.3 139.6 375.1 131.1 374.6 139.6 370.4 139.6 371.2 124.1"/>
    <path class="st0" d="M397.1,124.1h6c5.5,0,8.6,3.2,8.3,7.7h0c-.2,4.5-3.7,7.8-9.2,7.8h-5.9l.8-15.5ZM401.2,127.9l-.4,7.9h1.8c2.6,0,4.4-1.4,4.5-3.9h0c.1-2.5-1.5-3.9-4.1-3.9h-1.8Z"/>
  </g>
</svg>