<?xml version="1.0" encoding="UTF-8"?>
<svg id="Layer_2" data-name="Layer 2" xmlns="http://www.w3.org/2000/svg" viewBox="0 0 1718.42 555.51">
  <defs>
    <style>
      .cls-1 {
        fill: #7b7b7b;
      }
    </style>
  </defs>
  <g id="Layer_1-2" data-name="Layer 1">
    <g>
      <path class="cls-1" d="M1330.45,0c23.28-.01,46.45,2.43,68.59,8.92,7.19,2.1,14.08,4.81,20.68,8.14,7.37,3.71,14.63,8.83,19.12,15.76,7.9,12.18.89,24.12-9.27,31.55-5.01,3.66-10.61,6.77-16.8,9.33-8.6,3.56-17.55,6.32-26.84,8.3-.09.02-.18-.03-.23-.11-5.22-10.82-11.89-20.51-20.02-29.08-.13-.14-.06-.36.13-.4,7.84-1.53,16.06-4.44,22.7-8.33,5.84-3.42,13.13-10.6,6.4-17.51-1.36-1.4-2.95-2.57-4.76-3.52-4.63-2.42-9.91-4.26-15.87-5.51-14.36-3.03-29.25-3.97-43.81-3.97-14.57.01-29.45.97-43.81,4.01-5.96,1.26-11.24,3.11-15.87,5.53-1.81.95-3.4,2.13-4.76,3.52-6.72,6.92.57,14.08,6.42,17.5,6.64,3.88,14.86,6.78,22.7,8.3.19.04.26.27.13.4-8.12,8.58-14.78,18.28-19.99,29.11-.04.09-.14.13-.23.11-9.3-1.96-18.25-4.72-26.85-8.27-6.19-2.55-11.79-5.65-16.81-9.3-10.18-7.42-17.2-19.35-9.31-31.54,4.48-6.93,11.74-12.06,19.1-15.77,6.59-3.34,13.49-6.06,20.68-8.17C1284,2.49,1307.17.01,1330.45,0h0Z"/>
      <path class="cls-1" d="M1179.41,393.49c.02.15-.1.3-.26.3h-72.59c-.17,0-.32-.13-.34-.3l-13.13-102.9c-.01-.09-.13-.1-.16-.02l-37.99,105.79c-.06.17-.23.29-.41.29h-33.99c-.2,0-.37-.13-.44-.31l-36.51-105.99c-.04-.12-.21-.1-.23.02l-14.9,103.26c-.02.09-.09.16-.19.16h-72.8c-.12,0-.22-.1-.2-.23l43.84-266.92c.03-.16.17-.28.33-.28h52.21c.21,0,.4.13.47.33l47.89,128.42c.06.17.3.17.36,0l46.08-128.33c.09-.25.33-.42.59-.42h53.13c.19,0,.36.14.39.34l38.82,266.8h0Z"/>
      <path class="cls-1" d="M52.03,288.3c2.5,7.13,4.23,12.14,5.21,15.05,1.88,5.62,3.5,9.55,4.84,11.81,3.5,5.88,8.13,10.64,13.9,14.29,3.63,2.3,7.84,3.51,12.6,3.64,6.2.17,10.88-2.43,14.02-7.8,4.09-6.99,4.94-16.81-.42-23.35-1.86-2.27-4.15-4.09-6.85-5.48-9.68-4.95-20.94-9.36-29.12-12.8-12.43-5.23-24.56-12.48-33.99-22.4-12.06-12.7-18.44-28.63-19.37-46.07-.89-16.62,2.5-33.09,10.58-47.43,7.92-14.07,20.32-26.02,34.91-33.08,15.37-7.45,33.87-9.7,50.67-6.73,16.08,2.83,30.53,8.18,43.33,16.05,6.48,3.98,12.55,9.29,17.62,15.26,1.68,1.98,3.36,3.92,5.05,5.83.09.1.1.26.02.38l-37.56,55.64c-.08.12-.26.12-.35,0-4-5.6-7.68-10.69-11.03-15.29-6-8.22-13.37-13.91-23.9-14.12-4.21-.08-7.79,1.33-11.18,4.18-3.3,2.77-5.67,7.62-3.66,11.77,1.98,4.08,8.25,7.98,12.29,9.88,18.66,8.79,27.7,12.72,40.51,19.64,4.11,2.23,7.79,4.44,11.51,7.49,18.96,15.52,27.53,36.87,27.77,61.27.31,31.27-11.31,61.71-38.2,79.34-17.23,11.3-37.9,15.63-58.4,14.4-16.3-.98-31.04-5.97-44.22-14.97-12.51-8.54-23-20.36-31.04-33.19-2.62-4.19-5.12-8.32-7.51-12.4-.12-.2-.08-.45.08-.6l51.68-50.25c.06-.06.17-.04.19.04h0Z"/>
      <path class="cls-1" d="M424.36,276.34v117.26c0,.1-.08.18-.18.18h-71.76c-.1,0-.18-.08-.18-.18v-117.23s-.01-.07-.02-.09l-82.3-143.21c-.07-.12.02-.27.16-.27h83.84c.07,0,.13.04.16.1l32.99,65.65c.07.13.25.13.32,0l36.2-65.66c.03-.06.09-.09.15-.09h84.19c.14,0,.23.15.16.28l-83.7,143.18s-.03.06-.03.09h0Z"/>
      <path class="cls-1" d="M803.35,133.09l-102.51,193.99c-.07.13.03.29.18.29h88.02c.11,0,.2.09.2.2v66.02c0,.11-.09.2-.2.2h-204.77c-.15,0-.25-.16-.18-.29l102.86-193.98c.07-.13-.03-.29-.18-.29h-78.02c-.11,0-.2-.09-.2-.2v-66.03c0-.11.09-.2.2-.2h194.41c.15,0,.25.16.18.29h0Z"/>
      <path class="cls-1" d="M1367.63,393.52c0,.15-.12.26-.26.26h-71.63c-.15,0-.26-.12-.26-.26V133.07c0-.15.12-.26.26-.26h71.63c.15,0,.26.12.26.26v260.45h0Z"/>
      <path class="cls-1" d="M1718.39,393.58c.07.09,0,.21-.11.21h-91.9c-.19,0-.37-.09-.48-.25l-54.59-76.92c-.07-.09-.22-.04-.22.07v76.85c0,.14-.11.25-.25.25h-72c-.13,0-.24-.1-.24-.24V133.07c0-.15.12-.27.28-.27h71.95c.14,0,.26.12.26.26v71.04c0,.14.19.2.27.09l52.38-71.15c.11-.15.29-.24.47-.24h90.38c.14,0,.23.17.13.28l-99.54,121.23c-.11.13-.12.33-.01.46l103.21,138.8h0Z"/>
      <path class="cls-1" d="M528.09,434.37l.53-.05c24.48-1.77,49.28,8.16,62.11,29.73,6.71,11.28,9.01,24.29,7.91,37.46-2.27,27.27-21.7,46.81-48.21,52.29-26.96,5.57-58.4-2.27-73.3-27.32-7.87-13.24-9.9-29.67-6.82-44.68,5.75-28.02,30.19-45.51,57.77-47.43M511.81,495.14c-.36,13.08,8.23,22.9,21.47,23.26,13.24.36,22.36-8.97,22.72-22.04.36-13.08-8.23-22.9-21.47-23.26-13.24-.36-22.36,8.97-22.72,22.04h0Z"/>
      <path class="cls-1" d="M528.62,434.32l-.53.05c.09-.09.27-.11.53-.05h0Z"/>
      <path class="cls-1" d="M452.39,435.92c.08,0,.13.08.11.15l-41.31,117.52c-.03.08-.1.13-.19.13h-36.81c-.12,0-.22-.08-.25-.2-2.91-13.86-7.38-34.96-13.44-63.3-.06-.3-.39-.44-.98-.41-.3.02-.54.26-.55.56-.36,7.31-.96,12.99-2.86,20.32-2.62,10.18-6.28,24.46-10.96,42.83-.03.12-.14.2-.26.2h-36.01c-.12,0-.22-.08-.26-.19l-40.93-117.45c-.03-.08.03-.17.12-.17h43.08c.17,0,.32.12.35.28,8.57,40.1,13.44,62.93,14.6,68.5.13.63.28,1.09.45,1.35.28.45.97.28,1.02-.25.73-8.04,2.12-16.04,4.19-24.01,4.62-17.83,8.54-33.07,11.77-45.71.03-.1.12-.17.22-.17h32.52c.1,0,.19.07.21.17,9.32,40.78,14.57,63.73,15.73,68.84.13.56.27.94.44,1.17.3.4.92.22.97-.27.48-4.79.99-9.17,1.54-13.11.42-3.07,1.3-7.38,2.63-12.94,2.42-10.12,5.88-24.69,10.39-43.71.02-.09.1-.15.19-.15h44.31Z"/>
      <path class="cls-1" d="M736.05,554.08l-48.72.03c-.12,0-.23-.07-.29-.18l-18.38-37.55c-.2-.41-.83-.27-.83.19l.02,37.11c0,.18-.15.34-.34.33l-41.09.03c-.19,0-.35-.16-.35-.35l-.08-117.47c0-.18.14-.31.32-.31,29.08-.02,47.16.01,54.22.09,9.43.11,20.05,2.34,28.16,7.14,9.93,5.87,15.68,14.84,17.25,26.89.79,6.09.62,11.78-.51,17.06-2.46,11.45-10.68,16.87-21.34,20.35-.68.22-.83,1.11-.26,1.55,3.45,2.61,5.3,4.45,7.78,8.28.45.69,8.63,12.88,24.55,36.56.07.1,0,.23-.12.23M667.8,468.27l.07,19.53c0,.08.06.13.13.13l6.8-.02c5.41-.02,9.79-3.89,9.78-8.64v-2.58c-.03-4.75-4.43-8.6-9.84-8.58l-6.8.02c-.08,0-.13.06-.13.13h0Z"/>
      <path class="cls-1" d="M871.15,435.92c.08,0,.12.08.08.15l-36.47,56.65c-.12.19-.12.43,0,.61l40.26,59.68c.1.15,0,.36-.19.36h-48.83c-.25,0-.48-.13-.6-.35-6.95-12.33-13.78-24.32-20.48-35.97-.04-.07-1.57-2.54-4.58-7.4-1.03-1.67-1.75-3.4-2.15-5.17-.06-.28-.33-.47-.62-.44-.28.03-.5.28-.49.57l1.06,48.43c0,.19-.14.34-.33.34h-41.24c-.11,0-.2-.09-.2-.2v-116.94c0-.17.14-.31.31-.31h40.9c.12,0,.21.09.21.21-.52,23.88-.88,40.58-1.06,50.09,0,.28.06.5.17.65.27.33.8.21.9-.2.59-2.45,1.43-4.67,2.53-6.64,5.12-9.21,13.14-23.83,24.05-43.84.09-.17.26-.26.45-.26h46.3Z"/>
      <path class="cls-1" d="M977.03,490.42c-.6,7.51-.68,11.71-2.38,18.13-.09.36-3.94,15.37-11.52,45.05-.02.08-.09.13-.17.13h-35.99c-.18,0-.33-.11-.39-.28l-40.89-117.34c-.03-.09.04-.19.14-.19h43.75c.18,0,.34.13.38.3l14.84,69.62c.07.3.34.51.65.49.3-.02.55-.26.58-.57.7-7.9,2.03-15.67,3.99-23.28,5.11-19.85,9.08-35.27,11.92-46.27.04-.18.2-.3.39-.3h32.22c.18,0,.33.12.38.29,9.79,42.77,15.06,65.88,15.84,69.35.07.31.2.53.4.66.35.23.82-.02.86-.46.56-5.43,1.11-10.03,1.67-13.82.46-3.21,1.42-7.74,2.86-13.6.52-2.15,3.87-16.23,10.04-42.27.02-.08.1-.14.19-.14h43.54c.11,0,.19.11.15.22l-41.24,117.31c-.06.17-.21.28-.39.28h-36.51c-.17,0-.33-.12-.36-.29l-13.45-63.12c-.08-.37-.41-.62-.79-.6-.37.02-.68.32-.71.69h0Z"/>
      <path class="cls-1" d="M1134.31,479.43h32.81c.1,0,.19.09.19.19v30c0,.1-.09.19-.19.19h-32.82c-.1,0-.19.09-.19.19v11.39c0,.1.09.19.19.19h37.11c.1,0,.19.09.19.19v31.75c0,.1-.09.19-.19.19h-79.95c-.1,0-.19-.09-.19-.19v-117.42c0-.1.09-.19.19-.19h78.51c.1,0,.19.09.19.19v31.74c0,.1-.09.19-.19.19h-35.66c-.1,0-.19.09-.19.19v11c0,.1.09.19.19.19h0Z"/>
      <path class="cls-1" d="M1278.39,436.06l41.98,117.41c.04.13-.05.26-.19.26h-44.91c-.09,0-.17-.06-.19-.15l-3.84-14.33c-.02-.09-.1-.15-.19-.15h-31.83c-.09,0-.17.06-.19.15l-3.48,14.33c-.02.09-.1.15-.19.15h-44.92c-.14,0-.23-.13-.19-.26l40.91-117.41c.03-.08.1-.13.19-.13h46.85c.08,0,.15.06.19.13M1263.71,510.93c-1.91-8.03-3.63-15.12-5.16-21.27-1.25-5.05-2-9.25-2.62-13.91-.06-.44-.35-.67-.87-.68-.35-.01-.66.23-.74.58l-7.67,35.24c-.04.19.1.36.29.36l16.54-.04c.15,0,.26-.14.23-.28h0Z"/>
      <path class="cls-1" d="M1451.61,554.06l-48.78.12c-.12,0-.23-.07-.29-.18l-18.47-37.56c-.2-.41-.83-.27-.83.19l.09,37.16c0,.19-.15.34-.34.34l-41.14.1c-.19,0-.35-.15-.35-.35l-.28-117.61c0-.17.14-.31.32-.31,29.11-.07,47.21-.07,54.29,0,9.45.09,20.08,2.31,28.2,7.1,9.95,5.86,15.72,14.83,17.31,26.89.8,6.1.65,11.79-.49,17.08-2.45,11.46-10.66,16.91-21.33,20.42-.68.23-.83,1.12-.26,1.55,3.46,2.61,5.31,4.45,7.8,8.28.45.69,8.67,12.88,24.64,36.56.07.1,0,.23-.12.23M1382.9,468.27l.1,19.54c0,.07.06.12.12.12l6.81-.04c5.4-.03,9.76-3.87,9.73-8.59v-2.71c-.04-4.71-4.43-8.51-9.83-8.49l-6.81.04c-.07,0-.12.06-.12.12h0Z"/>
    </g>
  </g>
</svg>