<?xml version="1.0" encoding="UTF-8"?>
<svg id="Layer_1" xmlns="http://www.w3.org/2000/svg" version="1.1" viewBox="0 0 1316 1348">
  <!-- Generator: Adobe Illustrator 30.1.0, SVG Export Plug-In . SVG Version: 2.1.1 Build 136)  -->
  <defs>
    <style>
      .st0 {
        fill: #010101;
      }

      .st1 {
        fill: #fff;
      }
    </style>
  </defs>
  <path class="st0" d="M487.2,0c-8.3,13.4-17.8,29.5-28.4,48.1-18.8,33-34.4,65.8-46.9,98.3-7.1,18.4-12.3,36.5-15.7,54.3-3.5,18.1-6.8,38.3-9.9,60.8-4,28.4-4.5,54.6-5.6,85.1-.4,10.2-1.1,17.9-1.5,26.4-.2,4.9-.7,11.5-1.5,19.8-2.1,23-4.5,46.9-7.2,71.7-1.2,10.7-2.1,23.8-3.4,37.6-1,10.2-1.8,19.6-2.4,28.2-1.5,21.3-3,42.4-4.7,63-.4,5-.9,12.4-1.5,22.2-1,16.3-2.8,39.3-3.9,55.6-.5,7.9-2.9,44-7,108.1-.4,5.8-.6,9.1-.6,9.8-.2,8.2-1.2,16.3-1.7,24.5-2.3,36-4.2,68-5.9,96.1-.9,15.7-1.7,31.6-2.4,47.7-.5,12.6-1.6,25.6-1.8,34.7-.4,15.7-1.4,30.3-1.9,47-1.7,52.4-2.9,91.6-3.4,117.8-.1,5.1-.5,12.8-.6,16.9-.8,26.7-1.5,53.3-2.1,80,0,.4-.4,15.4-1.2,45.2-.4,16.4-.7,32.8-.9,49.2h-1c-.9-.3-1.2-.8-1.1-1.3.1-.5.2-.8.2-.8.1-6.7.3-13.9.3-21.4.2-19.2,1.4-40.5,1.7-56.6.4-27.2,1.4-45.7,1.8-73.5.3-17.1,1.3-37.5,1.5-54.6,0-9.4.3-18.3.8-26.7.9-17.2,1-36.2,1.6-52.5.6-14.1.9-22.7,1-25.8.2-12.7,1.3-25,1.5-38.4.2-8.9.5-16.8,1.1-23.6.9-10.2.8-19.2,1.5-31.5.6-10.8,1.4-25.1,2.3-42.8.5-9.1.8-14.6.9-16.4.7-9.5,1.1-15,1.1-16.4,0-3.4.2-7.6.8-12.6.9-8.2.9-17,1.8-26.8.6-6.7.5-15.2,1.2-22.7,1-9.6,1.1-19.6,1.8-27.4,1-10.2,1.1-19.7,2-29.4.7-7.6.7-16.7,1.6-24.9.6-6.1.6-12.9,1-18.1,1.3-16.5,2.4-33.1,3.4-49.8.3-5.2,1.2-11.3,1.3-16.7.2-8.9,1.3-17.2,1.8-26.1.9-14.7,1.7-26,2.4-34.1.8-9.7,1.1-19.2,2.1-27.3,0-.4,1-13.3,2.9-38.5.2-2.3.6-4.4.7-6.1.1-5.2.5-9.9,1-14.3.5-3.9,1-8.6,1.4-14.2.4-5.9,1.1-13,2.1-21.5.5-4.1.8-7.1.8-9.2.2-4.1.9-7.5,1.4-12.2,1.4-14.1,1.9-21.4,3-29.7.6-4.6.4-10.4,1.1-14.8,1.4-9.9,1.4-18.3,2.3-30.1.4-5.6.7-12.4.9-20.6,0-.4.5-13.8,1.5-40,.2-4.4.4-8,.8-10.9.7-4.9.8-10.1,1.3-14.5,4.4-33.8,8.7-60.5,12.9-80.1,4.3-20,11.3-41.6,21.1-64.6,12.2-28.7,26.4-57.3,42.6-85.6C469.8,25.3,478.3,11,485.1,0h2.1Z"/>
  <path class="st1" d="M558.7,0c-2.2,1.9-4.2,3.7-6.1,5.6-19.2,19.2-34.4,41.1-45.8,65.7-18.7,40.6-17.8,85.5-14,128.9,2.8,31.8,3.9,64.5,3.3,98.1-.3,21.4-.6,38.5-.8,51.5-.6,37.4-.4,75.2-.2,113,.2,39.3-.4,97-.8,135-.3,33.7,0,71.4,1,113.3.7,29.7,1.2,52,1.6,66.7.8,36.1,1.5,60.4,2,72.8.5,12.8.8,19.5.8,20.2.4,17.9.8,23.5,1.6,42.5.4,8.3.2,19,1.1,27.3.6,5.9.9,9.8.9,11.6,0,8.7.6,19.4,1.4,29,1.8,24.1,3.8,48.2,6,72.2.6,4.9,1.2,9.9,1.7,14.8.6,5,.8,10,.8,14.9,0,36.6,0,75.7,0,117.3,0,.3.2.5.5.5,7.5.2,15.4.2,23.7,0,.7,0,1.1.1,1.3.4.8,3.2,1.5,6.4,2,9.6,3.5,20.2,6.1,38,6.1,57.2,0,4.2-.4,8.8-1.2,14-3.6,22.9-8.6,44.9-14.9,66h-205.3c.1-16.4.4-32.8.9-49.2.8-29.7,1.2-44.8,1.2-45.2.6-26.7,1.3-53.3,2.1-80,.1-4.2.5-11.9.6-16.9.6-26.1,1.7-65.4,3.4-117.8.6-16.7,1.6-31.3,1.9-47,.2-9.1,1.2-22.1,1.8-34.7.7-16,1.5-31.9,2.4-47.7,1.6-28.1,3.6-60.1,5.9-96.1.5-8.2,1.5-16.3,1.7-24.5,0-.7.2-4,.6-9.8,4.1-64.1,6.5-100.1,7-108.1,1.1-16.3,2.9-39.3,3.9-55.6.6-9.8,1.1-17.3,1.5-22.2,1.7-20.7,3.2-41.7,4.7-63,.6-8.6,1.4-18,2.4-28.2,1.3-13.7,2.2-26.9,3.4-37.6,2.7-24.8,5.1-48.7,7.2-71.7.8-8.4,1.3-15,1.5-19.8.3-8.6,1.1-16.2,1.5-26.4,1.1-30.6,1.6-56.7,5.6-85.1,3.2-22.5,6.5-42.8,9.9-60.8,3.4-17.8,8.6-35.9,15.7-54.3,12.5-32.5,28.2-65.3,46.9-98.3C469.5,29.5,478.9,13.4,487.2,0h71.4Z"/>
  <path class="st0" d="M561.5,0c-20.7,18.1-37.5,40.7-49.9,65.1-12.7,24.9-18.4,51.8-19,79.7-.6,26.8,1.2,46.1,3.8,79.2,1,13.2,1.6,30.1,1.6,50.7.1,33.2-.3,66.1-1.2,98.5-.3,9.8-.2,30.1.1,60.8.3,24.3.3,44.6,0,60.8-.5,32.9-.8,70.9-.9,113.8,0,41.5.2,72.8.8,94,.8,26,1.2,46.1,1.5,60.4.4,26.1,1.5,54.2,2,79.5.2,11.7.8,18.8.9,30.5,0,4.5.4,12.1,1,22.8.9,17.3,1.2,29.5,2.3,45.7.4,5.6.6,11.8.8,18.7,0,1.7.7,3.9.8,5.8,1.2,26.1,2.7,48.4,4.5,67.1.7,7.3,1.1,13.4,1,18.1,0,1.8-.3,2.5-1.1,2-2.2-24.1-4.2-48.1-6-72.2-.7-9.6-1.4-20.3-1.4-29,0-1.8-.3-5.6-.9-11.6-.8-8.3-.7-19-1.1-27.3-.8-19.1-1.2-24.6-1.6-42.5,0-.7-.3-7.4-.8-20.2-.5-12.4-1.2-36.7-2-72.8-.3-14.7-.8-37-1.6-66.7-1-41.8-1.3-79.6-1-113.3.4-38,1.1-95.7.8-135-.2-37.8-.5-75.6.2-113,.2-12.9.5-30.1.8-51.5.5-33.6-.6-66.3-3.3-98.1-3.8-43.3-4.7-88.3,14-128.9,11.4-24.7,26.6-46.6,45.8-65.7,1.8-1.8,3.9-3.7,6.1-5.6h2.9Z"/>
  <path class="st1" d="M798.3,0c15.9,15.8,25,37.2,30.7,58.7,5,18.8,8.4,38,10.2,57.4,1.7,17.1,1.4,41.5,2.7,57.6,1,11.6,1.6,18.5,1.9,20.7,1.2,8.9,4.2,21.6,5.4,28.5,3.8,22,6.4,41.5,7.9,58.8,2.3,27.6,3,56,2.3,85.2-.6,23.7-1.2,40.3-1.9,50-3.4,47.4-7.1,87.8-12.2,146.5-1.4,15.9-2.8,33-4.1,51.4-3,41.4-5.5,75-8.1,116.8-7.1,113.2-11.5,181.5-13.3,205.1-1.3,17.3-2.7,33.6-4.2,48.8-1.8,17.7-4.6,36.2-8.5,55.6-1.1,5.7-2.3,11.5-3.4,17.4-.6-2.7-.9-5-.9-6.9,0-267.7,0-569.1,0-904.2,0-.3-.2-.5-.5-.5h-288.7c-.3,0-.6.3-.6.6,0,233.6,0,531.1,0,892.7,0,4-.3,8.3-.7,12.5,0,.2-.2.3-.4.3-.1,0-.2-.1-.3-.3v-1.6c0-4.7-.4-10.8-1.2-18.1-1.8-18.7-3.3-41-4.5-67.1,0-1.9-.8-4.2-.8-5.8-.1-6.8-.4-13.1-.8-18.7-1.1-16.2-1.4-28.3-2.3-45.7-.6-10.7-.9-18.3-1-22.8-.1-11.7-.7-18.8-.9-30.5-.5-25.3-1.6-53.4-2-79.5-.2-14.2-.7-34.3-1.5-60.4-.6-21.2-.9-52.5-.8-94,.1-42.9.4-80.9.9-113.8.2-16.2.2-36.5,0-60.8-.4-30.8-.4-51-.1-60.8.9-32.4,1.3-65.3,1.2-98.5,0-20.6-.6-37.5-1.6-50.7-2.5-33.1-4.4-52.5-3.8-79.2.6-27.9,6.4-54.8,19-79.7C524,40.7,540.8,18.1,561.5,0h236.8Z"/>
  <path class="st0" d="M800.1,0c1.2.9,2.2,1.7,3,2.7,16.2,19.4,25.8,42.9,30.9,67.6,3.4,16.4,5.9,32.8,7.3,49.1,1.6,17.8,1.4,42.3,2.6,55.9.7,8.7,1.1,16.2,2.8,24.8,3.3,17,5.5,27.5,7.7,42.4,10.1,67.8,8.2,137.1,2.8,205.5-.9,10.9-3.8,45.3-8.9,103.4-4.8,54.3-9.5,118.8-14.1,193.7-4.9,78.6-8.9,141.2-12.1,187.8-2.2,32.8-5.4,66.7-11.2,100.2-1,5.5-3,15.2-6.1,28.9-1,.1-1.3-1-.8-3.2,1.1-5.9,2.2-11.7,3.4-17.4,3.9-19.4,6.7-37.9,8.5-55.6,1.5-15.2,3-31.5,4.2-48.8,1.7-23.6,6.2-91.9,13.3-205.1,2.6-41.8,5.1-75.4,8.1-116.8,1.3-18.4,2.7-35.5,4.1-51.4,5.1-58.7,8.8-99.1,12.2-146.5.7-9.7,1.3-26.3,1.9-50,.7-29.2,0-57.6-2.3-85.2-1.4-17.2-4-36.8-7.9-58.8-1.2-6.9-4.2-19.6-5.4-28.5-.3-2.2-.9-9.1-1.9-20.7-1.3-16.1-1.1-40.5-2.7-57.6-1.9-19.4-5.3-38.6-10.2-57.4C823.3,37.1,814.2,15.8,798.3,0h1.8Z"/>
  <path class="st1" d="M996.3,0c6.8,18.1,12.2,36.6,16.4,55.5,1.7,7.8,3.1,16.2,4.2,25.2,1.8,14.4,2.7,22.9,2.9,25.7.7,12.3,1.7,23.6,2,35.1.4,17.9,1.1,28.8,1,43.3,0,15.6,0,24.3-.4,40.3-.4,12.3-.6,22.7-.6,31,0,14.8-1,25-1.5,41.8-.3,8.2-.8,18.6-1.5,31.3-2.5,44.1-3.9,68-4.2,71.6-.9,10.9-1.3,23.3-1.8,27.7-.9,7.8-.8,14-1.6,21.5-.3,2.4-.7,7.8-1.2,16.1-1.1,16-1.7,25.4-2,28.1-.8,7.2-1,12.7-1.5,18.8-.9,10.3-2,24.2-3.2,41.8-.2,3.4-.8,7.5-1.1,11-1.4,19.4-2.8,38.5-4.3,57.3-.5,5.9-.9,11.4-1.2,16.3-.8,13.5-1.5,18.9-1.5,28.8,0,1.9-.2,6-.6,12.5-.8,12.9-.9,29.6-1.8,40.1-.5,6.8-.8,12.1-.9,16.2-.3,15.8-1.7,32.3-2,47.3-.1,6.9-.7,12-1,19-.4,10.9-1.3,31.3-2.9,61-.9,18.3-1.2,32.5-2.1,50.9-.5,9.9-.5,23.2-1.3,33.1-.9,11.5-.8,26.9-1.3,36.7-1.3,26-1.4,41.7-2.4,68-.5,12.8-.9,30.9-1.2,54.2,0,4.2-.6,9-.7,12.7-.3,27.2-.8,58.9-1.5,94.9-.7,40.6-.8,88.9-1.2,133.3h-236.8c3.1-11.4,6-21.2,8.6-29.5,1.5-4.9,3.6-10.2,6.3-15.9.3-.7.5-1.3.7-2.1,1.2-6.5,1.9-10.4,2-11.8.4-4.8,1.1-17.7,2-38.8.2-5.5.9-13.1,2.3-17.5,3-9.8,6.9-20,11.5-30.6,0-.2.2-.3.4-.4.2-.1.5-.2.8-.3h30.3c.2-.1.4-.3.4-.5,0-40.2,0-80.5,0-120.8,0,0,0-1.6-.2-4.9-.1-4.4.5-8.7,1.9-12.9,3.1-13.7,5.2-23.3,6.1-28.9,5.8-33.5,9-67.4,11.2-100.2,3.2-46.6,7.2-109.2,12.1-187.8,4.7-74.9,9.4-139.4,14.1-193.7,5.1-58,8.1-92.5,8.9-103.4,5.4-68.4,7.3-137.6-2.8-205.5-2.2-14.8-4.4-25.3-7.7-42.4-1.7-8.7-2-16.2-2.8-24.8-1.1-13.5-1-38.1-2.6-55.9-1.5-16.3-3.9-32.7-7.3-49.1-5.1-24.6-14.6-48.2-30.9-67.6-.8-.9-1.8-1.8-3-2.7h196.2Z"/>
  <path class="st0" d="M998.1,0c7.8,21.2,13.4,40.2,16.6,57,2.1,10.8,3.7,20.9,4.9,30.4.8,6.3,1.8,17.8,3,34.6.6,7.6.9,16.3,1.1,26,.2,10.6.9,25.1.9,38,0,10.4,0,19.9-.2,30-.6,23.1-.5,43.9-1.6,63-.8,13.8-.9,28.2-1.9,42.5-.7,9.9-.7,19.5-1.5,31.1-1.3,18.4-2.3,40.6-3.5,53.7-.6,6.7-.5,13.4-1.1,19.5-.7,6.3-1,11.1-1.1,14.6-.2,7.2-1.1,13.9-1.6,21.8-2,28.6-4.1,55.3-6.2,80.1-.3,3.3-.5,6-.5,7.8-.2,7-1.3,13-1.6,19.6-.2,8.1-1.3,16.1-2.1,26.2-1.1,15.2-2,27.1-2.6,35.8-1.1,15.5-2.1,33.9-3.1,55.1-.6,14-.6,21.9-1.4,32.7-.7,9.8-1,19-1,25.8,0,2.9-.4,9.3-1.1,19.3-.7,9.5-.6,19.1-1.2,28.1-.8,12-.8,28.4-2,42-.2,1.9-.4,7.3-.7,16.1-.1,3.8-.5,11.9-1.1,24.1-1.3,25.7-1.9,41.1-2,46.2-.2,9.3-.5,18.2-1,26.7-1.1,19-1,33-2,51.3-.7,13-.6,26.6-1.2,39.7-1,23.3-1.1,49.2-2,74.4-.2,6-.4,11.3-.4,15.8-.4,31.6-.6,51.8-.8,60.6-1.1,55.7-1.6,108.2-1.3,157.3,0,.3-.2.6-.5.7l-.5.2h-1c.4-44.4.5-92.7,1.2-133.3.6-36,1.1-67.6,1.5-94.9,0-3.7.6-8.5.7-12.7.3-23.3.7-41.3,1.2-54.2,1-26.3,1-42,2.4-68,.5-9.7.4-25.2,1.3-36.7.8-9.9.8-23.2,1.3-33.1,1-18.5,1.2-32.6,2.1-50.9,1.5-29.8,2.5-50.1,2.9-61,.2-7,.9-12.2,1-19,.3-15,1.7-31.5,2-47.3,0-4,.4-9.4.9-16.2.8-10.4,1-27.2,1.8-40.1.4-6.4.6-10.6.6-12.5,0-9.9.7-15.3,1.5-28.8.3-4.9.7-10.4,1.2-16.3,1.5-18.9,3-38,4.3-57.3.2-3.6.8-7.6,1.1-11,1.3-17.5,2.3-31.5,3.2-41.8.5-6.2.7-11.6,1.5-18.8.3-2.8,1-12.1,2-28.1.5-8.3.9-13.7,1.2-16.1.8-7.5.7-13.7,1.6-21.5.5-4.3,1-16.8,1.8-27.7.3-3.6,1.7-27.5,4.2-71.6.7-12.7,1.2-23.2,1.5-31.3.5-16.7,1.5-27,1.5-41.8,0-8.3.2-18.6.6-31,.5-15.9.4-24.6.4-40.3,0-14.5-.6-25.4-1-43.3-.3-11.5-1.2-22.8-2-35.1-.2-2.8-1.1-11.3-2.9-25.7-1.1-9-2.5-17.4-4.2-25.2C1008.6,36.6,1003.1,18.1,996.3,0h1.8Z"/>
  <path class="st1" d="M800.5,1070.2c-4.5,14.2-9.3,28.2-14.3,42.2-4.1,11.3-6.5,21.8-7.2,31.6-.3,4.4-.5,10.8-.6,19.3,0,12.3-3.6,23.9-8.4,36-.3.7-.9,1-1.9.9h-227c-.2,0-.3,0-.5,0-.1,0-.2-.1-.2-.3-3.3-15.7-4.9-23.6-5-23.8-.3-1.3-5.1-22.3-14.4-63-1.1-5-2.8-15.2-4.9-30.7-.2-1.5-.8-3.5-.9-5.2-.8-8-1.6-15.5-1.5-23.8.2-13.7.2-32.4.2-56.3,0-266.2,0-549.2,0-848.8,0-.2.2-.4.4-.4h287c.2,0,.4.2.4.4h0c0,304.6,0,609.3,0,914,0,1.5-.4,4.1-1.3,7.9Z"/>
  <path class="st0" d="M801.2,1073.2c-1.8,8.8-6.2,19.4-12.4,37-4.5,12.5-7.1,23.5-7.9,33.1-.2,2.9-.4,8.8-.5,17.7-.1,12.8-2.9,25.4-8.4,37.7,0,.1-.2.4-.4.7-.2.3-.2.6.1.7.1.6.3.9.5,1-.3,0-.6.1-.8.3-.2.1-.3.3-.4.4-4.7,10.7-8.5,20.9-11.5,30.6-1.3,4.3-2.1,11.9-2.3,17.5-.9,21-1.6,34-2,38.8-.1,1.4-.8,5.3-2,11.8-.1.7-.4,1.4-.7,2.1-2.6,5.8-4.7,11.1-6.3,15.9-2.6,8.3-5.5,18.2-8.6,29.5h-2.4l9-28.8c0-.2,0-.4-.3-.5,0,0,0,0-.1,0-20.4.7-33,1.1-37.9,1.2-15.9.4-32.1.1-48.5-1-25.1-1.7-48.6-6.5-70.5-14.5-14.3-5.2-27.4-12.2-39.3-20.9-.2-.2-.5-.1-.7.1,0,0,0,.1,0,.2-3.7,21.8-8.5,43.1-14.4,64.2h-2.1c6.3-21.1,11.3-43.1,14.9-66,.8-5.1,1.2-9.8,1.2-14,0-19.2-2.6-37-6.1-57.2-.5-3.2-1.2-6.4-2-9.6.2-.2.2-.6,0-1.2-4.4-23.4-10-46.7-15.3-68.8-3.1-12.7-4.2-19.7-6.8-33.3-.3-1.4-.5-3.2-.7-5.2-.2-1.7-.4-3.5-.7-5.2.1-3,.1-4.9,0-5.7-.4-1.8-.3-3.4.3-4.7,0,1.8.7,3.7.9,5.2,2.1,15.5,3.7,25.7,4.9,30.7,9.3,40.8,14.1,61.8,14.4,63,0,.2,1.7,8.1,5,23.8,0,.1.1.2.2.3.2,0,.3,0,.5,0-.2-.1-.4-.1-.5,0-.1,0-.2.2-.1.4,0,.2,0,.4,0,.5,1.4,7.1,3,16.3,4.7,27.6,2.8,18.5,4.3,36,2.3,52.1,0,.3.1.7.4.9,12.8,9.5,27,17,42.5,22.3,17,5.9,34.4,9.9,52.1,11.9,32.3,3.7,66.2,2.7,101.3,1.2.5,0,1-.4,1.2-.8l5.3-13c0-.2,0-.4-.2-.5,0,0-.1,0-.2,0l-6.6,1.7c-.3,0-.5-.1-.6-.4,0,0,0-.1,0-.2v-.4c.1-.5.5-.9,1-1.1l6.9-1.8c.4-.1.8-.4.9-.9,1-4,1.7-8.6,2.2-13.9.2-1.8.8-14.9,2-39.5.3-5.5.9-9.7,1.8-12.8,3.1-10.6,7-21,11.5-31.2.2-.5.1-.9-.3-1.2-.2-.2-.5-.2-.8,0,.1,0,.2,0,.3,0,0,0,.1-.1.2-.2,0-.2,0-.4,0-.6.9.1,1.6-.1,1.9-.9,4.8-12,8.4-23.7,8.4-36,0-8.5.2-14.9.6-19.3.7-9.7,3.2-20.3,7.2-31.6,5-14,9.8-28.1,14.3-42.2.8,0,1,1,.6,3Z"/>
  <path class="st1" d="M771.7,1200c-.3,0-.3-.3-.1-.7.2-.3.3-.5.4-.7,5.5-12.3,8.3-24.9,8.4-37.7,0-8.9.3-14.8.5-17.7.8-9.6,3.4-20.6,7.9-33.1,6.3-17.6,10.6-28.1,12.4-37,.5,1.3.7,3.2.7,5.5,0,40.4,0,80.7,0,121,0,.2-.2.4-.4.4h-29.8Z"/>
  <ellipse class="st1" cx="514.4" cy="1082.3" rx="1.1" ry=".2" transform="translate(-568.8 1594.8) rotate(-89.9)"/>
  <path class="st1" d="M515.1,1087.5c.3,1.7.5,3.5.7,5.2.2,2,.5,3.8.7,5.2,2.5,13.6,3.7,20.6,6.8,33.3,5.3,22.1,10.9,45.4,15.3,68.8h-24c-.3,0-.5-.1-.5-.4v-115c0-.2.1-.3.3-.3,0,0,0,0,0,0h0c.1,0,.2.1.2.2,0,0,0,0,0,0-.3,1.1-.1,2,.5,2.9Z"/>
  <path class="st1" d="M767.8,1201c.3-.2.6-.1.8,0,.4.3.5.7.3,1.2-4.5,10.2-8.3,20.7-11.5,31.2-.9,3.1-1.5,7.3-1.8,12.8-1.2,24.6-1.8,37.7-2,39.5-.5,5.3-1.2,9.9-2.2,13.9-.1.4-.4.8-.9.9l-6.9,1.8c-.5.1-.9.5-1,1.1v.4c0,.3,0,.5.4.6,0,0,.1,0,.2,0l6.6-1.7c.2,0,.4,0,.4.3,0,0,0,.1,0,.2l-5.3,13c-.2.5-.7.8-1.2.8-35.2,1.5-69.1,2.6-101.3-1.2-17.7-2-35.1-6-52.1-11.9-15.5-5.4-29.6-12.8-42.5-22.3-.3-.2-.4-.6-.4-.9,2-16.1.5-33.6-2.3-52.1-1.7-11.3-3.3-20.5-4.7-27.6h227.3ZM557.9,1275.5c.2-.4,0-.8-.3-1.1l-6.1-3.6c-.4-.2-.8,0-1.1.3v.2c-.4.4-.2.8.1,1.1h0l6.1,3.6c.4.2.8,0,1.1-.3v-.2ZM574.2,1283.4c.2-.4,0-1-.4-1.2l-6.7-3.1c-.4-.2-1,0-1.2.4h0c-.2.5,0,1,.4,1.2,0,0,0,0,0,0l6.7,3.1c.4.2,1,0,1.2-.4h0ZM591,1289.8c.2-.4,0-.9-.5-1l-7-2.6c-.4-.2-.9,0-1,.5h0c-.2.6,0,1,.5,1.2l7,2.6c.4.2.9,0,1-.5h0ZM608.6,1295.1c.1-.4-.1-.9-.6-1h0l-7.7-2.3c-.4-.1-.9.1-1,.6h0c-.1.5.1,1,.6,1.1h0l7.7,2.3c.4.1.9-.1,1-.6h0ZM625.8,1299.1c.1-.5-.2-.9-.6-1l-7.1-1.8c-.5-.1-.9.2-1,.6h0c-.1.5.2,1,.6,1.1h0l7.1,1.8c.5.1.9-.2,1-.6h0ZM643.9,1302.1c0-.4-.2-.8-.6-.9h0l-7.9-1.3c-.4,0-.8.2-.9.6h0s0,0,0,0c0,.4.2.8.6.9h0l7.9,1.3c.4,0,.8-.2.9-.6h0ZM653,1302.5l-.2,1.4c0,.2,0,.3.2.3h0s.6,0,.6,0c4.4.5,8.1.7,8.1.4v-1c.1-.3-3.5-.9-7.9-1.4h-.6c-.2,0-.3,0-.3.2,0,0,0,0,0,0ZM679.5,1305.3c0-.4-.2-.7-.6-.7l-7.4-.7c-.4,0-.7.2-.7.6h0v.4c0,.4.2.7.6.7l7.4.7c.4,0,.7-.2.7-.6h0v-.4ZM733.8,1305c0-.4-.4-.7-.8-.7l-7.5.7c-.4,0-.7.4-.7.8h0c0,.5.4.9.8.8l7.5-.7c.4,0,.7-.4.7-.8h0ZM697.7,1306.3c0-.5-.3-.8-.8-.9h0l-7.7-.4c-.5,0-.8.3-.9.8h0c0,.5.3.9.8.9h0l7.7.4c.5,0,.8-.3.9-.8h0s0,0,0,0ZM715.9,1306.1c0-.3-.3-.6-.6-.6h-8c-.3.1-.6.4-.6.7v.6c0,.3.3.6.6.6h8c.3-.1.6-.4.6-.7v-.6Z"/>
  <rect class="st0" x="553.2" y="1269.1" width="1.8" height="8.7" rx=".8" ry=".8" transform="translate(-825.2 1111.8) rotate(-59.8)"/>
  <rect class="st0" x="569.1" y="1276.9" width="1.8" height="9.1" rx=".9" ry=".9" transform="translate(-832.3 1256.5) rotate(-65)"/>
  <path class="st1" d="M735.2,1348h-202.6c5.9-21,10.7-42.4,14.4-64.2,0-.3.3-.4.6-.4,0,0,.1,0,.2,0,11.9,8.7,25,15.7,39.3,20.9,21.8,8,45.3,12.8,70.5,14.5,16.4,1.1,32.6,1.4,48.5,1,4.8-.1,17.5-.5,37.9-1.2.2,0,.4.2.4.4,0,0,0,0,0,.1l-9,28.8Z"/>
  <rect class="st0" x="585.8" y="1283.7" width="1.8" height="9.1" rx=".8" ry=".8" transform="translate(-825.5 1386.7) rotate(-69.5)"/>
  <rect class="st0" x="603" y="1288.9" width="1.7" height="9.7" rx=".8" ry=".8" transform="translate(-809.2 1497.9) rotate(-73.2)"/>
  <rect class="st0" x="620.5" y="1293.5" width="1.8" height="9" rx=".9" ry=".9" transform="translate(-788.4 1587) rotate(-76)"/>
  <rect class="st0" x="638.4" y="1296.5" width="1.6" height="9.6" rx=".8" ry=".8" transform="translate(-748.3 1721.8) rotate(-80.7)"/>
  <path class="st0" d="M653,1302.5c0-.2.2-.3.3-.3,0,0,0,0,0,0h.6c4.4.6,8,1.2,8,1.4v1c-.1.3-3.8,0-8.2-.4h-.6c-.2,0-.3-.2-.3-.4,0,0,0,0,0,0l.2-1.4Z"/>
  <rect class="st0" x="674.2" y="1300.7" width="1.8" height="8.8" rx=".7" ry=".7" transform="translate(-684 1863.9) rotate(-85)"/>
  <rect class="st0" x="724.7" y="1304.6" width="9.1" height="1.7" rx=".8" ry=".8" transform="translate(-119.6 74.4) rotate(-5.4)"/>
  <rect class="st0" x="692.1" y="1301.5" width="1.7" height="9.3" rx=".8" ry=".8" transform="translate(-645.4 1934.5) rotate(-87.2)"/>
  <rect class="st0" x="706.8" y="1305.6" width="9.1" height="1.8" rx=".6" ry=".6" transform="translate(-18.2 10.1) rotate(-.8)"/>
</svg>