<?xml version="1.0" encoding="UTF-8"?>
<svg id="Layer_1" xmlns="http://www.w3.org/2000/svg" version="1.1" viewBox="0 0 1316 1348">
  <!-- Generator: Adobe Illustrator 30.1.0, SVG Export Plug-In . SVG Version: 2.1.1 Build 136)  -->
  <defs>
    <style>
      .st0 {
        fill: #fff;
      }
    </style>
  </defs>
  <path d="M894.2,1348h-2.6c.2-17.7.3-35.3.4-53,.6-117.5,1-237.8,1.1-360.7,0-49.8.5-104.8.5-150.1,0-17-.4-37.7-.7-52.7-.2-14.7-1.6-30.2-2-42.8-.4-12.7-1.7-25.5-2.6-39.7-.4-5.9-2.1-24.7-5.1-56.2-.5-5.4-.7-9-1.3-14-.8-6.3-1.6-11.9-2.3-16.8-9.7-61.8-32.9-122.6-68.5-174.5-8.9-12.9-22.7-29.6-32.4-44.1-1.6-2.4-4.6-7.1-8.9-14.1-.2-.4-.7-.5-1.1-.4l-.4.2c-.5.2-1.1.2-1.5-.1l-4.2-2.4c-.6-.4-.9-1.1-.8-1.8v-.4c.3-.6.9-1,1.5-.8.1,0,.2,0,.3.1l3.5,2c.3.2.7,0,.8-.2.2-.3.1-.6-.1-.8-8.2-7.5-20.4-12.4-30.9-14-6.4-1-13.2-1-20.4,0-6.8.9-13.4,2.4-20,4.4-15.9,4.9-31.6,11.5-45.8,20.9-3.7,2.4-7,5-9.9,7.6-5.4,5-8.4,7.8-9.1,8.5-5,5.3-11.7,12.8-17.7,20.2-14.1,17.6-27,34.3-43.6,47.7-3.3,2.6-5.9,4.5-8,5.7-3.7,2.1-5.8,3.3-6.3,3.7-.8.5-1.3,1.4-1.3,2.3v.2c0,.4.3.8.7.8.1,0,.3,0,.4,0,1.1-.7,2.3-1,3.4-1,.8,0,1.4.6,1.3,1.4,0,.5-.3,1-.9,1.2l-3.5,1.4c-1.1.4-1.9,1.4-2.2,2.6-.4,1.9-1.2,5.5-2.2,10.7-1.8,8.9-6,17.7-11.4,27.9-2.1,4.1-4.2,7.8-6.2,11.2-16.9,28.9-28.7,49.3-35.6,61.4-18.9,33.2-34.5,64.9-46.4,99.1-3.7,10.6-6.5,21.6-8.5,33-3.8,21.4-6.6,42.4-8.4,62.9-2.1,23.4-.6,45.6-2.3,68-.6,7.4-1.1,15.6-1.6,24.6-.3,5.1-1.4,12.1-1.6,18.2,0,2.3-.5,6.8-1.2,13.6-.9,7.9-1.1,16.2-2,24.9-.3,2.4-.6,7.4-1,15-.6,10.2-1.6,19.2-2,29.4-.6,14.3-1.4,24.3-2.4,42.9-3.8,71.5-5.8,111-6,118.4-.2,5.8-.4,11.5-.8,17.1-1,14.5-1.3,29.8-2,42.8-1.2,21.6-1.7,39.3-2.7,58.8-.3,6-.5,12.3-.6,18.8-.2,13.6-.7,28.7-1.5,45.3-.4,9.5-.8,31.3-1,65.5h-3.2c-.2-9.7-.1-17.2,0-22.2.9-25.2,1.6-50.5,2.3-76,.3-11.7.7-23.5,1.1-35.3.2-5.5.7-15.9,1.5-31.1.6-11.7,1-21.1,1.2-28.3.4-10.9,1.6-25.8,1.8-37.8.2-13.9,1.6-29.4,2.2-47.3.2-6.5.7-14.7,1.4-24.4.5-7.6.4-15.1.9-22.5.8-10.7,1.3-19.2,1.5-25.6.5-14.7,1.8-26.9,2.1-38.6.3-10.7,1.8-24.2,2.1-35.4.2-5.5.5-10.1.9-13.9,1-9.7,1.2-18.8,2.2-28.3,1.1-10.6,1.1-16.2,2.3-26,.5-3.8.8-7.7.9-11.6.4-8,2-21.1,2.1-30.8,0-6.9.8-15,.9-21.1.3-16.7.7-30.7,1.1-42.2.3-7.2,1.6-14.2,2-21,.3-6,1.4-10.9,2.3-17.8,1.1-8.9,2.8-19.2,4.9-30.9,1.8-10.3,4.4-20.2,7.6-29.6,7.1-21,15.6-41.4,25.3-60.9,5.8-11.8,13-25.2,21.6-40.2,5.7-10,18.9-32.8,39.6-68.4,3.7-6.4,6.9-12.8,9.5-19,2.1-5.1,3.9-10.9,5.2-17.5.6-3.1,2.2-13.2,4.7-30.5.9-6,5.4-12.1,9.5-16.8,19.2-22.5,39-43.3,59.2-62.2,6.9-6.5,12.9-11.6,17.8-15.4,14.2-10.8,30-18.3,47.4-22.4,28.7-6.7,64.6-8.7,80,22.7,9.5,19.2,22.6,36.4,36,53.6,8.9,11.4,17.6,24.5,26.1,39.4,25.5,44.8,42.6,92.3,51.1,142.7,1.9,11.4,3.7,25.9,5.3,43.3,2.4,26,3.7,40.5,4,43.5,4.2,49.7,6.2,104.3,5.9,164-1,216.3-1.5,356-1.6,419,0,38.1-.1,76.2-.3,114.3,0,0,0,1.5.3,4.4.1,2-.2,3.4-.9,4.3ZM763,316.3c-7.6-12.6-20.9-18.5-35.5-20.1-3.9-.4-10.4-.4-19.5.2-4.7.3-8.2,1.3-13.8,2.3-15.2,2.8-29.6,8.5-43,17-5.6,3.6-11.7,8.2-18.1,14-16.2,14.5-30.4,28.9-46,45.5-3.9,4.1-7.7,8.4-11.3,12.8,0,0-3.8,4.3-11.3,12.9-4.4,5-7,11.1-7.9,18.1-.3,2.2-.5,4.4-.7,6.5,0,.2.2.4.4.4,0,0,.2,0,.2,0,6-3.6,11.9-7.6,17.5-12.8,8.7-7.9,16.7-16.6,24.2-25.9,5.1-6.3,10.2-12.7,15.4-19.2,2-2.5,3.9-4.7,5.7-6.7,4.8-5.3,9.3-10.6,14.4-15.2,5-4.5,8-7.2,9.1-8,16.8-12.8,36.5-21.2,57.1-27.2,5.1-1.5,11.2-2.6,16.5-3.3,16.6-2.2,31.9.9,46,9.3.2.1.5,0,.6-.1,0-.1,0-.3,0-.5Z"/>
  <path class="st0" d="M763,316.3c.1.2,0,.5-.1.6-.1,0-.3,0-.5,0-14.1-8.5-29.4-11.6-46-9.3-5.3.7-11.4,1.8-16.5,3.3-20.6,6-40.3,14.4-57.1,27.2-1.1.8-4.1,3.5-9.1,8-5,4.6-9.5,9.9-14.4,15.2-1.8,2-3.7,4.2-5.7,6.7-5.2,6.5-10.3,12.9-15.4,19.2-7.5,9.3-15.5,17.9-24.2,25.9-5.6,5.1-11.6,9.2-17.5,12.8-.2.1-.4,0-.6-.1,0,0,0-.2,0-.2.2-2.1.4-4.2.7-6.5.8-7.1,3.5-13.1,7.9-18.1,7.5-8.6,11.2-12.9,11.3-12.9,3.7-4.4,7.4-8.7,11.3-12.8,15.7-16.5,29.8-31,46-45.5,6.4-5.8,12.5-10.4,18.1-14,13.5-8.5,27.8-14.2,43-17,5.5-1,9.1-2.1,13.8-2.3,9.2-.5,15.7-.6,19.5-.2,14.7,1.6,27.9,7.5,35.5,20.1Z"/>
  <path class="st0" d="M891.6,1348h-229.5c-.4-2-.5-3.4-.5-4,.1-7.1.2-22.2.2-45.5-.1-196.3-.1-344.2,0-443.6,0-8.4-.1-15.2-.4-20.2,0-.4.3-.7.6-.7,0,0,0,0,0,0,8.1,0,15.8-.4,22.9-1.2,5.1-.5,9.8-.4,14.8-1.1,6.1-.9,12.2-1.4,17.9-2.3,21-3.2,41.8-8,62.2-14.4,1.1-.4,1.9-1.4,1.9-2.5-.2-51-.3-112.4-.2-184.1,0-16.7-.1-27.2-.4-31.4-2.1-29-12.3-56.5-30.3-79-22.1-27.5-53.2-44.4-88.5-46.2-.5,0-.9-.4-1-.9l-21.2-118.9c0-.4,0-.7.3-1l3.9-3.9c.4-.4.4-1.1,0-1.5,0,0,0,0,0,0l-.7-.7c-.4-.4-1.1-.4-1.5,0h0s-3.7,3.7-3.7,3.7c-.5.5-.7,1.3-.5,2,.5,1.8.9,3,.9,3.4,8.4,46.3,15.2,84.9,20.6,115.6.1.6.3,1,.7,1.4.2.2.2.5,0,.7-.1.1-.2.2-.4.2-13.9-.4-27.6,1.8-40.9,6.5-31.8,11.3-57.9,37.3-71.8,68-8.7,19.2-13.1,38.4-13.1,57.6,0,106.3,0,176.1,0,209.4,0,.8.5,1.4,1.3,1.5,1.3.2,2.1.4,2.4.5,23.3,7,45.2,11.8,65.8,14.4,4,.5,7.5,1,10.6,1.5,5.3.8,11.6.7,16.8,1.2,8.6.9,18,1.3,28.3,1.2.5,0,1,.4,1,1,0,0,0,0,0,0v513c.1,0-253.6,0-253.6,0,.2-34.2.6-56,1-65.5.8-16.6,1.3-31.7,1.5-45.3.1-6.6.3-12.8.6-18.8,1-19.4,1.5-37.2,2.7-58.8.7-13,1-28.2,2-42.8.4-5.6.7-11.3.8-17.1.2-7.4,2.2-46.9,6-118.4,1-18.6,1.9-28.6,2.4-42.9.4-10.1,1.4-19.2,2-29.4.4-7.6.8-12.7,1-15,.9-8.7,1.1-17,2-24.9.8-6.8,1.2-11.4,1.2-13.6.2-6.1,1.3-13.1,1.6-18.2.5-9,1-17.2,1.6-24.6,1.7-22.4.2-44.6,2.3-68,1.8-20.5,4.6-41.5,8.4-62.9,2-11.4,4.9-22.4,8.5-33,11.9-34.2,27.5-66,46.4-99.1,6.9-12.1,18.7-32.5,35.6-61.4,2-3.4,4.1-7.2,6.2-11.2,5.4-10.2,9.6-19,11.4-27.9,1-5.2,1.8-8.8,2.2-10.7.3-1.2,1.1-2.1,2.2-2.6l3.5-1.4c.7-.3,1-1.1.8-1.8-.2-.5-.7-.8-1.2-.9-1.1,0-2.3.3-3.4,1-.3.2-.8,0-1-.3,0-.1-.1-.3-.1-.4v-.2c0-.9.6-1.8,1.3-2.3.5-.3,2.5-1.5,6.3-3.7,2.1-1.2,4.8-3.1,8-5.7,16.7-13.4,29.5-30.1,43.6-47.7,6-7.5,12.8-15,17.7-20.2.7-.7,3.7-3.6,9.1-8.5,2.9-2.7,6.2-5.2,9.9-7.6,14.3-9.4,30-16,45.8-20.9,6.6-2,13.3-3.5,20-4.4,7.2-1,13.9-1,20.4,0,10.5,1.6,22.8,6.5,30.9,14,.3.2.3.6,0,.9-.2.2-.5.3-.8.1l-3.5-2c-.5-.3-1.2-.1-1.5.4,0,0,0,.2-.1.3v.4c-.3.7,0,1.4.6,1.8l4.2,2.4c.5.3,1,.3,1.5.1l.4-.2c.4-.2.9,0,1.1.4,4.3,7,7.3,11.7,8.9,14.1,9.7,14.4,23.5,31.2,32.4,44.1,35.7,51.9,58.8,112.7,68.5,174.5.8,4.9,1.5,10.4,2.3,16.8.6,5,.8,8.7,1.3,14,3,31.5,4.8,50.3,5.1,56.2.9,14.2,2.2,27,2.6,39.7.4,12.6,1.7,28.1,2,42.8.2,15.1.6,35.8.7,52.7,0,45.3-.4,100.3-.5,150.1-.1,123-.5,243.2-1.1,360.7,0,17.7-.2,35.3-.4,53ZM731.9,311.9c0-.5-.4-.9-.9-.9h-6.3c-.5,0-.9.4-.9.9h0s0,1.7,0,1.7c0,.5.4.9.9.9h6.3c.5,0,.9-.4.9-.9v-1.7ZM718.2,313c-.1-.5-.6-.8-1.1-.6h0l-6.3,1.6c-.5.1-.8.6-.6,1.1h0s.3,1.3.3,1.3c.1.5.6.8,1.1.6h0l6.3-1.6c.5-.1.8-.6.6-1.1h0s-.3-1.3-.3-1.3ZM736.9,313.7c-.3.9,1.5,2.3,3.9,3,0,0,0,0,0,0,2.4.8,4.6.7,4.9-.3h0c.3-.9-1.5-2.3-3.9-3,0,0,0,0,0,0-2.4-.8-4.6-.7-4.9.3h0ZM706,317.4c-.3-.9-2.5-.8-4.9.1t0,0c-2.4.9-4,2.4-3.7,3.2.3.9,2.5.8,4.9-.1,2.4-.9,4-2.4,3.7-3.2ZM757.9,321.7c.3-.7,0-1.5-.7-1.8h0s-5.6-2.5-5.6-2.5c-.7-.3-1.5,0-1.8.7v.2c-.4.7,0,1.5.6,1.8h0l5.6,2.5c.7.3,1.5,0,1.8-.7v-.2ZM684.9,324.7l.6,1.6c.1.3.5.5.8.4l4.8-1.9c1.5-.6,2.4-1.6,2.2-2.3v-.2c-.4-.7-1.8-.8-3.3-.2l-4.8,1.9c-.3.1-.5.5-.4.9ZM680.5,327.2c-.3-.7-1-1-1.7-.8,0,0,0,0,0,0l-5.7,2.2c-.7.3-1,1-.8,1.7,0,0,0,0,0,0v.3c.4.7,1.2,1,1.8.8h0l5.7-2.2c.7-.3,1-1,.8-1.7,0,0,0,0,0,0v-.3ZM659.6,335l.7,1.6c.1.3.5.5.9.3,0,0,0,0,0,0l4-1.8c1.9-.9,3.2-2.1,2.9-2.9,0,0,0,0,0,0v-.2c-.4-.7-2.2-.6-4.1.2l-4,1.8c-.3.2-.5.5-.3.9ZM655.6,338c-.5-.8-2.7-.4-4.9.9h0c-2.2,1.3-3.6,3-3.1,3.8.5.8,2.7.4,4.9-.9,2.2-1.3,3.6-3,3.1-3.8ZM627.9,360.4l1.5,1.3c.2.2.6.2.8,0,0,0,0,0,0,0l3-3.4c1.2-1.4,1.8-2.9,1.3-3.4l-.4-.4c-.5-.5-2,.3-3.2,1.7,0,0,0,0,0,0l-3,3.4c-.2.2-.2.6,0,.8,0,0,0,0,0,0ZM619.7,371.2l1.4,1c.3.2.7.2,1-.1l3-4c.9-1.2,1.1-2.4.6-2.8l-.6-.4c-.5-.4-1.7.2-2.5,1.4l-3,4c-.2.3-.2.7.1,1,0,0,0,0,0,0ZM617.6,378c.5-.7.3-1.6-.4-2.1,0,0,0,0,0,0h0c-.7-.5-1.6-.3-2.1.3l-3.2,4.7c-.5.7-.3,1.6.4,2.1,0,0,0,0,0,0h0c.7.5,1.6.3,2.1-.3l3.2-4.7ZM609.6,389c.5-.6.3-1.5-.3-2h0c-.6-.5-1.5-.4-2,.3l-3.4,4.6c-.5.6-.3,1.5.3,2h0c.6.5,1.5.4,2-.3h0s3.4-4.6,3.4-4.6ZM601.4,399.9c.5-.6.4-1.5-.2-2h0c-.6-.6-1.5-.5-2,.1h0s-3.5,4.3-3.5,4.3c-.5.6-.4,1.5.2,2h0c.6.6,1.5.5,2-.1h0s3.5-4.3,3.5-4.3ZM592.8,408.9l-1.2-1.2c-.3-.3-.7-.2-.9,0l-3.5,3.6c-1.1,1.1-1.6,2.5-1,3l.2.2c.5.5,1.9,0,3-1.1,0,0,0,0,0,0l3.5-3.6c.3-.3.2-.7,0-.9ZM583.1,417.4c-.5-.7-2.6,0-4.7,1.4-2.1,1.5-3.4,3.3-2.8,4.1h0c.5.7,2.6,0,4.7-1.4,2.1-1.5,3.4-3.3,2.8-4.1h0ZM571.8,425.6c-.4-.7-1.3-.9-2-.5h0l-4.9,3c-.7.4-.9,1.3-.5,2h0s0,.1,0,.1c.4.7,1.3.9,2,.5h0l4.9-3c.7-.4.9-1.3.5-2h0s0-.1,0-.1Z"/>
  <rect x="726.1" y="308.7" width="3.6" height="8.1" rx=".9" ry=".9" transform="translate(413.8 1040.1) rotate(-89.9)"/>
  <rect x="710.2" y="313.1" width="8.3" height="3.1" rx=".9" ry=".9" transform="translate(-55.1 183.5) rotate(-14.1)"/>
  <ellipse cx="741.3" cy="315.1" rx="1.7" ry="4.6" transform="translate(218.9 928.2) rotate(-72.6)"/>
  <ellipse cx="701.7" cy="319.1" rx="4.6" ry="1.7" transform="translate(-68 276.7) rotate(-21.3)"/>
  <rect x="752.3" y="315.6" width="3" height="8.9" rx="1.4" ry="1.4" transform="translate(155.8 879.6) rotate(-66.1)"/>
  <path d="M684.9,324.7c-.1-.3,0-.7.4-.9l4.8-1.9c1.5-.6,2.9-.5,3.2.2v.2c.4.7-.6,1.8-2.1,2.3l-4.8,1.9c-.3.1-.7,0-.8-.4l-.6-1.6Z"/>
  <rect x="672.1" y="327.4" width="8.7" height="3" rx="1.3" ry="1.3" transform="translate(-72.8 263) rotate(-20.9)"/>
  <path d="M659.6,335c-.1-.3,0-.7.3-.9l4-1.8c1.9-.9,3.7-1,4-.2v.2c.4.7-.9,2-2.8,2.9,0,0,0,0,0,0l-4,1.8c-.3.2-.7,0-.9-.3,0,0,0,0,0,0l-.7-1.6Z"/>
  <ellipse cx="651.6" cy="340.4" rx="4.7" ry="1.7" transform="translate(-82.7 376.5) rotate(-30.4)"/>
  <path d="M662.1,1348h-2v-513c-.1-.5-.6-1-1.1-1,0,0,0,0,0,0-10.3.1-19.8-.3-28.3-1.2-5.2-.5-11.5-.4-16.8-1.2-3.1-.5-6.6-1-10.6-1.5-20.5-2.7-42.4-7.5-65.8-14.4-.3,0-1.1-.3-2.4-.5-.7-.1-1.3-.8-1.3-1.5,0-33.3,0-103.1,0-209.4,0-19.2,4.4-38.4,13.1-57.6,14-30.7,40.1-56.7,71.8-68,13.3-4.7,27-6.9,40.9-6.5.3,0,.5-.2.5-.5,0-.1,0-.3-.2-.4-.3-.3-.6-.8-.7-1.4-5.4-30.8-12.2-69.3-20.6-115.6,0-.5-.4-1.6-.9-3.4-.2-.7,0-1.5.5-2l3.7-3.7c.4-.4,1.1-.4,1.5,0h0s.7.7.7.7c.4.4.4,1.1,0,1.5h0s-3.9,3.9-3.9,3.9c-.3.3-.4.6-.3,1l21.2,118.9c0,.5.5.8,1,.9,35.3,1.8,66.4,18.7,88.5,46.2,18,22.4,28.2,50,30.3,79,.3,4.2.5,14.7.4,31.4,0,71.7,0,133,.2,184.1,0,1.2-.7,2.2-1.9,2.5-20.4,6.4-41.1,11.2-62.2,14.4-5.8.9-11.9,1.4-17.9,2.3-4.9.7-9.6.6-14.8,1.1-7.1.7-14.7,1.1-22.9,1.2-.4,0-.7.3-.7.6,0,0,0,0,0,0,.2,5.1.4,11.8.4,20.2-.1,99.4-.1,247.3,0,443.6,0,23.3,0,38.4-.2,45.5,0,.6.2,2,.5,4ZM657.5,473.6c-5.8,0-9.8.1-11.8.4-60.8,7.1-102.4,57.9-109.6,116.6-.6,5.2-.9,18.9-.9,41.3.1,60.1.1,119.9,0,179.6,0,1.1.8,2,1.8,2.2,4.8.8,8.9,2.4,14.5,3.9,15.4,4.2,31.4,7.5,48,10,7.3,1.1,16,1.8,23.8,2.9,5.7.8,17.1,1.1,34.1,1.1,17.1,0,28.4-.4,34.1-1.2,7.8-1.1,16.5-1.8,23.8-2.9,16.7-2.5,32.7-5.9,48-10,5.6-1.5,9.7-3.1,14.5-3.9,1-.2,1.8-1.1,1.8-2.1-.2-59.6-.2-119.5,0-179.6,0-22.3-.3-36.1-.9-41.3-7.2-58.7-48.9-109.5-109.7-116.6-2-.2-6-.4-11.8-.4Z"/>
  <path d="M627.9,360.4c-.2-.2-.3-.6,0-.8,0,0,0,0,0,0l3-3.4c1.2-1.4,2.7-2.1,3.2-1.7,0,0,0,0,0,0l.4.4c.5.5,0,2-1.3,3.4l-3,3.4c-.2.2-.6.3-.8,0,0,0,0,0,0,0l-1.5-1.3Z"/>
  <path d="M619.7,371.2c-.3-.2-.4-.7-.2-1,0,0,0,0,0,0l3-4c.9-1.2,2-1.8,2.5-1.4l.6.4c.5.4.3,1.7-.6,2.8l-3,4c-.2.3-.7.4-1,.1l-1.4-1Z"/>
  <rect x="610.4" y="378" width="8.7" height="3.1" rx="1.5" ry="1.5" transform="translate(-45.2 673.5) rotate(-55.7)"/>
  <rect x="602.5" y="389" width="8.6" height="2.9" rx="1.4" ry="1.4" transform="translate(-66.7 649.5) rotate(-53.8)"/>
  <rect x="594.3" y="399.6" width="8.4" height="3" rx="1.4" ry="1.4" transform="translate(-91.4 609) rotate(-50.6)"/>
  <path d="M592.8,408.9c.3.3.3.7,0,.9l-3.5,3.6c-1.1,1.1-2.4,1.6-3,1.1,0,0,0,0,0,0l-.2-.2c-.5-.5,0-1.9,1-3l3.5-3.6c.3-.3.7-.3.9,0l1.2,1.2Z"/>
  <ellipse cx="579.3" cy="420.1" rx="4.7" ry="1.6" transform="translate(-136.3 420.7) rotate(-36)"/>
  <rect x="563.8" y="426.4" width="8.6" height="3" rx="1.4" ry="1.4" transform="translate(-139.7 358.7) rotate(-31.4)"/>
  <path class="st0" d="M657.6,831.5c-17.1,0-28.4-.4-34.1-1.1-7.8-1-16.5-1.8-23.8-2.9-16.7-2.5-32.7-5.8-48-10-5.6-1.5-9.7-3.1-14.5-3.9-1-.2-1.8-1.1-1.8-2.2.1-59.6.1-119.5,0-179.6,0-22.3.2-36.1.9-41.3,7.2-58.7,48.8-109.5,109.6-116.6,2-.2,6-.4,11.8-.4s9.7.1,11.8.4c60.8,7.1,102.4,57.8,109.7,116.6.6,5.2.9,18.9.9,41.3-.1,60.1,0,119.9,0,179.6,0,1.1-.8,2-1.8,2.1-4.8.8-8.9,2.4-14.5,3.9-15.4,4.2-31.4,7.5-48,10-7.3,1.1-16,1.8-23.8,2.9-5.7.8-17.1,1.2-34.1,1.2ZM538.1,803.1l-.4,1.2c0,0,0,.2.1.2h0s.2,0,.2,0c4.1,1.3,7.4,2.2,7.5,2,0,0,0,0,0,0l.3-.8c.1-.2-3.1-1.4-7.2-2.8,0,0,0,0,0,0h-.2c0,0-.2,0-.2,0,0,0,0,0,0,0ZM775,804.5c-.1-.4-2.1-.2-4.5.6s-4.2,1.6-4,2.1h0c.1.4,2.1.2,4.5-.6,2.4-.7,4.2-1.6,4-2.1ZM559.7,809.9c0-.4-.1-.7-.5-.8l-7-1.6c-.4,0-.7.1-.8.5h0s0,0,0,0c0,.4.1.7.5.8l7,1.6c.4,0,.7-.1.8-.5h0s0,0,0,0ZM762.4,808c-.1-.4-2.7,0-5.8,1-3.1.9-5.5,1.9-5.4,2.3h0c.1.4,2.7,0,5.8-1,3.1-.9,5.5-1.9,5.4-2.3h0ZM574.2,812.5l-8.6-1.5c0,0-.1,0-.1,0,0,0,0,0,0,0h0c-.1.8,1,1.6,2.6,1.9l3.1.5c1.6.3,3,0,3.1-.8,0,0,0,0,0,0h0c0-.1,0-.2,0-.2ZM747.2,812c0-.3-.4-.5-.7-.5h0l-7.2,1.6c-.3,0-.5.4-.5.7v.2c.1.3.4.5.8.5h0l7.2-1.6c.3,0,.5-.4.5-.7v-.2ZM587.9,816.2c0-.4-.1-.7-.5-.8l-6.9-1.5c-.4,0-.7.1-.8.5h0c0,.5.1.8.5.9l6.9,1.5c.4,0,.7-.1.8-.5h0s0-.1,0-.1ZM732.8,815c0-.4-.5-.6-.9-.5l-6.9,1.6c-.4,0-.6.5-.5.9h0c0,.4.5.7.9.6l6.9-1.6c.4,0,.6-.5.5-.9h0ZM602.3,818.4c0-.2-.1-.5-.4-.5h0l-7-1.3c-.2,0-.5.1-.5.4h0v.6c-.2.2,0,.5.3.5h0l7,1.3c.2,0,.5-.1.5-.4h0v-.6ZM717.9,817.4c0-.3-.3-.5-.6-.4h0l-6.8,1.3c-.3,0-.5.3-.4.6v.5c.1.3.4.5.7.4h0l6.8-1.3c.3,0,.5-.3.4-.6h0s0-.5,0-.5ZM616.7,820.2c0-.5-.3-1-.7-1l-6.5-1.1c-.5,0-1,.3-1,.7v.7c-.2.5.1,1,.6,1l6.5,1.1c.5,0,1-.3,1-.7h0v-.7ZM703.8,819.2c0-.4-.4-.6-.7-.6l-6.9.9c-.4,0-.6.4-.6.7v.9c.2.4.5.6.9.6l6.9-.9c.4,0,.6-.4.6-.7h0s-.1-.9-.1-.9ZM631.2,821c0-.4-.3-.7-.7-.7h-6.9c-.4,0-.7.3-.7.6h0s0,.1,0,.1c0,.4.3.7.7.7h6.9c.4,0,.7-.3.7-.6h0s0-.1,0-.1ZM689.4,820.8c0-.3-.3-.6-.6-.6l-6.7.4c-.3,0-.6.3-.6.6v.4c0,.3.3.6.7.6l6.7-.4c.3,0,.6-.3.6-.6v-.4ZM674.5,821.5c0-.3-.3-.5-.5-.5l-6.3.3c-.3,0-.5.3-.5.5h0s0,1.3,0,1.3c0,.3.3.5.5.5l6.3-.3c.3,0,.5-.3.5-.5h0v-1.3ZM645.3,821.8c0-.2-.1-.4-.3-.4h0l-6.5-.5c-.2,0-.4.1-.4.3v1.1c0,.2,0,.4.2.4h0l6.5.5c.2,0,.4-.1.4-.3v-1.1ZM659.9,822.1c0-.3-.2-.5-.5-.5h-6.6c-.3,0-.5.2-.5.4h0s0,.8,0,.8c0,.3.2.5.5.5h6.6c.3,0,.5-.2.5-.4h0s0-.8,0-.8Z"/>
  <path d="M538.1,803.1c0,0,.1-.2.2-.1,0,0,0,0,0,0h.2c4.1,1.4,7.3,2.6,7.3,2.8,0,0,0,0,0,0l-.3.8c0,.2-3.3-.6-7.4-1.9,0,0-.1,0-.2,0h-.2c0,0-.1-.2-.1-.3h0s.4-1.2.4-1.2Z"/>
  <ellipse cx="770.8" cy="805.8" rx="4.5" ry=".8" transform="translate(-202.9 262.3) rotate(-17.1)"/>
  <rect x="554.8" y="804.7" width="1.4" height="8.5" rx=".7" ry=".7" transform="translate(-355.1 1174.7) rotate(-77.4)"/>
  <ellipse cx="756.8" cy="809.6" rx="5.8" ry=".7" transform="translate(-196.8 245) rotate(-16.3)"/>
  <path d="M574.2,812.5c0,0,0,0,0,.1h0c-.1.8-1.5,1.2-3.1.9,0,0,0,0,0,0l-3.1-.5c-1.6-.3-2.7-1.1-2.6-1.8h0c0-.1,0-.2.1-.1,0,0,0,0,0,0l8.6,1.5Z"/>
  <rect x="738.7" y="812.3" width="8.6" height="1.4" rx=".6" ry=".6" transform="translate(-155 175.4) rotate(-12.2)"/>
  <rect x="583" y="811.2" width="1.4" height="8.4" rx=".7" ry=".7" transform="translate(-337.3 1212.1) rotate(-77.7)"/>
  <rect x="724.3" y="815.3" width="8.6" height="1.5" rx=".7" ry=".7" transform="translate(-166 186.4) rotate(-13.1)"/>
  <rect x="597.5" y="814" width="1.5" height="8" rx=".5" ry=".5" transform="translate(-317.3 1252.4) rotate(-79.2)"/>
  <rect x="710.1" y="817.6" width="7.9" height="1.5" rx=".5" ry=".5" transform="translate(-139.5 146.8) rotate(-10.7)"/>
  <rect x="611.3" y="815.7" width="2.5" height="8.4" rx=".9" ry=".9" transform="translate(-295.6 1291.9) rotate(-80.7)"/>
  <rect x="695.7" y="819" width="8.3" height="2.3" rx=".7" ry=".7" transform="translate(-97.3 94.2) rotate(-7.2)"/>
  <rect x="626.3" y="816.9" width="1.5" height="8.3" rx=".7" ry=".7" transform="translate(-198.3 1442.4) rotate(-89.6)"/>
  <rect x="681.4" y="820.4" width="8" height="1.7" rx=".6" ry=".6" transform="translate(-50.2 44.7) rotate(-3.6)"/>
  <rect x="667.1" y="821.1" width="7.4" height="2.3" rx=".5" ry=".5" transform="translate(-40.7 35) rotate(-2.9)"/>
  <rect x="640.8" y="818.5" width="1.8" height="7.2" rx=".3" ry=".3" transform="translate(-224.2 1403.4) rotate(-85.9)"/>
  <rect x="655.3" y="818.7" width="1.7" height="7.5" rx=".5" ry=".5" transform="translate(-170.9 1472.8) rotate(-89.6)"/>
</svg>