<?xml version="1.0" encoding="UTF-8"?>
<svg id="Layer_1" xmlns="http://www.w3.org/2000/svg" version="1.1" viewBox="0 0 1316 1348">
  <!-- Generator: Adobe Illustrator 30.1.0, SVG Export Plug-In . SVG Version: 2.1.1 Build 136)  -->
  <defs>
    <style>
      .st0 {
        fill: #010101;
      }

      .st1 {
        fill: #0f1ffd;
      }

      .st2 {
        fill: #fff;
      }
    </style>
  </defs>
  <path class="st0" d="M316.1,0c-7.3,19.5-13,39.4-17.2,59.7-2,9.6-3.6,20.2-4.9,31.8-1.2,11.3-2.1,22-2.7,32.1-2,37.1-2.5,75.3-1.4,114.7,1.5,52.6,4.3,110.5,8.3,166.8.5,7.6,1,15.1,1.5,22.5.2,2.7,3.8,50.5,10.9,143.3.4,5.4.7,9,.9,10.7,2.2,24,3.8,44.9,4.7,62.5,2.8,52.1,5.1,101.1,7.1,147,.2,4.3.4,9.1.6,14.3,2.1,46.1,4.1,89.8,5.8,130.9.7,17.6,1.4,34.4,1.9,50.5,1,31.8,1.6,48.7,1.7,50.5,1,20.6,1.1,43.1,1.7,62,.5,17.6.9,33.1,1.1,46.5,1.1,64.5,1.8,127.8,2.2,189.8,0,4.2.2,8.4.5,12.5h-1.2l-.7-.3c-.3-.1-.5-.4-.5-.7.1-2.7.2-4.1.2-4.2,0-2.2-.3-37.7-.9-106.7-.2-20.5-.4-37.6-.8-51.2-.4-14.2-.6-25.6-.6-34.1,0-27.1-1.8-59.6-1.9-81.1,0-16.9-1.3-36.2-1.6-55.7-.2-11.5-1.3-31.2-1.7-48.3-.3-11.5-1.5-23.3-1.6-34.3-.1-15-1.2-30-1.9-47.6-.9-21.9-1.6-38.5-2.3-49.8-.9-14.5-1.1-24.4-1.9-42.6-1.3-27.2-1.9-42-2-44.5-.4-14.8-1.9-28.6-2-42,0-1.4-.3-8.3-1-20.5-.5-9.9-.9-16.7-1-20.5-.8-15.2-1.7-29.7-2.8-43.5-.2-2.4-.3-3.9-.4-4.5-1.5-18.3-2.5-36.5-4.3-54.5-.4-3.6-.6-6.9-.7-10-.1-5.5-1.1-11.1-1.5-16.4-.5-9-1.4-20.1-2.6-33.4-.6-6.2-.9-10.8-1-13.8-.3-6.1-1-11.4-1.5-18.4-1-15.1-1.8-26.3-2.4-33.4-.9-10.2-.9-16.6-1.7-25-.5-4.7-.9-10.7-1.2-18-.2-4.5-.6-10.5-1.1-18-2.4-35.1-4-66.9-4.9-95.3-.9-30-1.4-45.4-1.4-46.2-.7-34.8-.7-59.9,0-75.5.7-17.6.7-27.8,1.9-41,0,0,.3-4.4.9-13.1.3-5.3,1.3-13.8,2.9-25.6,1.2-8.8,2.7-17.2,4.5-25.3C302.5,34.8,307.8,17.1,314.3,0h1.8Z"/>
  <path class="st2" d="M511.4,0c-2.1,2.6-4.1,5.2-6,7.7-13.6,18-21.9,39.3-26.5,61.2-3,14.2-5.3,28.6-6.9,43-.9,8-1.4,16.6-1.6,25.9,0,2.3-.4,10.9-1.1,25.9-.5,10.6-1.1,19-1.8,25.1-.6,5.5-2,13.7-4.1,24.8-5,25.8-8.2,48.7-9.7,68.5-5.4,69.7-1.1,138.2,5.6,208,.8,8.5,1.7,18.2,2.5,29.1.5,6.4,1.4,16.1,2.7,29.1.4,4.2.9,9.7,1.4,16.4,1.6,20,3.1,39.6,4.6,58.6,2.2,27.5,3.9,50.8,5.1,69.9,7.8,122.5,12.4,193.7,13.7,213.8.9,13,2.5,34.2,5,63.7,1.3,15.7,3.2,31.4,5.6,47.3,2.7,17.9,6.6,36.1,11.6,54.4,1.2,3.4,1.8,5.8,1.8,7.3,0,40.2,0,80.5,0,121,0,.2.2.4.4.4h27.9c.3,0,.6.2.8.5.2.4.3.8.3,1.3,3.9,8.8,7.3,17.9,10.2,27,1.9,5.9,2.4,10.5,2.8,16.3.6,8.9,1.1,19.2,1.5,30.8.3,8,1.2,15.9,2.9,23.6,0,.4.2.8.4,1.2,3.5,8.3,5.8,14.4,7,18.3,2.7,9.4,5.5,18.7,8.4,28.1h-236.8c-.3-4.1-.5-8.3-.5-12.5-.4-62-1.1-125.2-2.2-189.8-.2-13.3-.6-28.8-1.1-46.5-.6-18.9-.7-41.4-1.7-62,0-1.8-.7-18.7-1.7-50.5-.5-16.1-1.2-32.9-1.9-50.5-1.7-41.2-3.7-84.8-5.8-130.9-.2-5.2-.5-10-.6-14.3-2-45.9-4.4-94.9-7.1-147-.9-17.7-2.5-38.5-4.7-62.5-.2-1.8-.4-5.3-.9-10.7-7.1-92.8-10.8-140.5-10.9-143.3-.4-7.4-.9-14.9-1.5-22.5-4-56.3-6.8-114.1-8.3-166.8-1.1-39.4-.7-77.7,1.4-114.7.5-10,1.4-20.7,2.7-32.1,1.3-11.6,2.9-22.2,4.9-31.8C303,39.4,308.8,19.5,316.1,0h195.4Z"/>
  <path class="st0" d="M514,0c-15.8,16.4-25.2,37.4-30.8,59-6.3,24.3-10.5,50.5-11.2,76.6,0,.6-.4,10.7-1.1,30.2-.5,14.9-2.3,30-5.4,45.5-2.8,14.4-4.4,22.4-4.6,24.2-4.5,29.9-7.1,58-7.8,84-.6,23.7-.5,45.9.3,66.5,1.1,27.6,3.6,63,6.8,98.4,1.7,19,2.9,33.7,4.3,48.1,1.5,15.8,3.7,42.8,6.8,81.3,1,12.5,1.5,23.9,2.5,35,1.2,13.6,3,40.3,5.6,80.2.3,4.3.5,8,.7,11,5.1,81.8,9,141.2,11.5,178,2.7,38.9,4.8,68.5,9.4,98,2.5,15.8,4.9,28.5,7.2,38.1,1.9,7.8,3.2,13.3,3.9,16.6-.1,1.1-.4,1.5-.9,1.4-5-18.4-8.9-36.5-11.6-54.4-2.4-15.8-4.2-31.6-5.6-47.3-2.5-29.5-4.2-50.8-5-63.7-1.3-20-5.9-91.3-13.7-213.8-1.2-19.1-2.9-42.4-5.1-69.9-1.5-19-3-38.6-4.6-58.6-.5-6.7-1-12.2-1.4-16.4-1.3-13-2.2-22.6-2.7-29.1-.9-10.9-1.7-20.6-2.5-29.1-6.7-69.8-10.9-138.2-5.6-208,1.5-19.9,4.8-42.7,9.7-68.5,2.1-11.1,3.5-19.3,4.1-24.8.7-6.1,1.3-14.5,1.8-25.1.7-14.9,1-23.5,1.1-25.9.2-9.3.7-17.9,1.6-25.9,1.6-14.4,3.9-28.8,6.9-43,4.6-21.8,12.9-43.2,26.5-61.2,1.9-2.5,3.9-5.1,6-7.7h2.6Z"/>
  <path class="st2" d="M750.7,0c3.5,2.8,6.7,5.8,9.8,9,20.8,21.5,39.3,49.1,48.8,76.7,6.6,19.2,10.1,39.5,10.4,61.1.2,12.8,0,22.2-.3,28.2-1.1,16-2.3,32.5-3.7,49.6-.5,6.9-.9,16.4-1,22.6-.2,27-.3,44.8-.3,53.2,0,8.8.4,36.5,1.1,83,.1,7.8,0,26.7-.2,56.7-.4,49.4.9,107.9.8,148.4,0,5.7-.5,15.4-.2,22.7.3,6.7.5,12.4.5,17,0,16.4-.1,31.6-.4,45.5-.9,53.9-1.8,94.7-2.6,122.5-.8,27.8-1.5,55.2-2.5,82-.5,12.4-.8,21.3-1,27-1,31.9-3.2,65.5-5.1,93.6,0,1.1-.2,4.1-.3,8.9,0,2.9-.3,5.8-.6,8.8-.7-3.2-1-6.7-1-10.6,0-263.8,0-550,0-858.4,0-.3-.2-.5-.5-.5h-289c-.1,0-.2.1-.2.2,0,305.1,0,610.1,0,915.2,0,2.7-.3,5.4-.9,8.2-.7-3.3-2-8.9-3.9-16.6-2.3-9.6-4.7-22.3-7.2-38.1-4.6-29.5-6.7-59.2-9.4-98-2.6-36.8-6.4-96.1-11.5-178-.2-3-.4-6.7-.7-11-2.6-39.9-4.4-66.6-5.6-80.2-.9-11.1-1.5-22.5-2.5-35-3.1-38.4-5.4-65.5-6.8-81.3-1.3-14.4-2.5-29.2-4.3-48.1-3.2-35.4-5.8-70.7-6.8-98.4-.8-20.6-.9-42.8-.3-66.5.6-26.1,3.2-54.1,7.8-84,.3-1.7,1.8-9.8,4.6-24.2,3-15.5,4.8-30.7,5.4-45.5.7-19.5,1.1-29.5,1.1-30.2.7-26.1,4.9-52.2,11.2-76.6C488.9,37.4,498.2,16.4,514,0h236.6Z"/>
  <path class="st0" d="M754.3,0c21.5,19.8,38.5,43.1,51,69.9,11.6,24.8,16.4,51.9,16.7,79.1.2,16.6-.4,32.9-1.8,49-1.2,13.1-2.7,28.6-2.8,41.7-.1,10.9-.7,24.5-.7,37.8.3,48.8,1.4,105.1,1,158.8-.3,32.2,0,69.6.6,112.2.1,8.2.1,16.3,0,24.5-.5,12.6-.5,23.7-.2,33.3,0,2.3.4,7.5.9,15.6,0,15.1,0,25.6-.2,31.6-1.2,63-2.3,114.4-3.3,154.1-1.7,67.3-4.1,125.3-7.3,174.1-.8,12.8-1.2,20.4-2.1,31.5-.7,8.6-1.5,17.3-2.2,25.9l-.9-.7c-.3-.2-.4-.5-.4-.8v-17.4c0-.3.1-.7.4-.9,1-1.1,1.3-2,.9-2.7.3-3,.5-6,.6-8.8.1-4.8.2-7.7.3-8.9,1.9-28,4-61.7,5.1-93.6.2-5.6.5-14.6,1-27,1.1-26.8,1.7-54.2,2.5-82,.8-27.8,1.7-68.6,2.6-122.5.2-13.9.4-29.1.4-45.5,0-4.6-.2-10.2-.5-17-.3-7.3.2-17,.2-22.7,0-40.6-1.2-99-.8-148.4.3-29.9.3-48.8.2-56.7-.7-46.5-1.1-74.2-1.1-83,0-8.5,0-26.2.3-53.2,0-6.2.5-15.7,1-22.6,1.4-17.1,2.6-33.7,3.7-49.6.4-6,.5-15.4.3-28.2-.3-21.6-3.8-41.9-10.4-61.1-9.5-27.6-28-55.2-48.8-76.7-3.1-3.2-6.4-6.2-9.8-9h3.6Z"/>
  <path class="st2" d="M825.5,0c1.3,1.8,2.5,3.7,3.7,5.6,10.9,18.2,21.9,37.1,32.8,56.8,9.8,17.6,20.5,39.8,32,66.5,8.3,19.3,14.9,38.8,19.8,58.3,1.2,4.8,2.3,10,3.2,15.6,3,17.5,4.6,26.6,4.7,27.2,1.1,7.3,2.2,14.3,3.2,20.9,1.2,7.8,2.7,19.9,4.3,36.4,1.4,13.8,1.2,28.4,2.1,42.3.7,12,.3,21,1.5,33.4.8,8.8.9,17.5,2.1,26.2.2,1.5.4,3.8.5,6.8.1,3.9.4,7.9.9,11.8,1.9,18.1,3,27.9,3.2,29.5,1.1,9.3,2,18.4,2.7,27.2.5,5.7,1.6,10.4,1.5,15.1,0,2,.3,5.8,1,11.3.5,4.1.9,8.2,1,12.2.1,4.1,1.2,8.9,1.3,13.3.1,5.2.6,11.2,1.3,18,.7,6.6.6,12.6,1.5,19.8.2,1.8.6,6.7,1.1,14.8.9,13.3,1.5,22.2,1.9,26.9.9,10.5,1,19.7,2.2,28.9.8,6.4.5,13.3,1.2,19.4.5,4.6.8,9.4,1.1,14.6.4,10,1.5,17.7,1.7,26.8.1,5.4,1.5,15.4,1.7,22.9.2,8.1,1.2,15.1,1.5,22.8.3,8,.7,13.9,1.1,17.6.8,6.4.4,13.2,1.1,19.5.9,8.3,1.3,19.1,1.8,25.6.7,8.6,1.3,18.3,1.8,29.2.2,4.7,1.1,9.6,1,14.2,0,2.3.2,5.9.6,10.7.6,6.8,1,13.2,1.2,19.2.2,8.1,1.2,15.1,1.4,23.6.2,10.1,1.6,22.3,1.8,33.9,0,5.4.6,9.9,1.2,17.8.7,10.6.5,22.8,1.6,31.9.3,2.1.6,11.9,1.1,29.3.2,7.9,1,14.7,1,21.8,0,4.3.2,9.7.5,16.3.8,17.9,1.4,35.9,1.8,54,0,3,.5,6.4.6,9.3.6,17.1.8,41.9,1.8,64.3.7,15.6.3,32.7,1.1,46.8.6,10.7,1,23.7,1.1,38.8,0,6.4.5,19.4,1.2,38.8.7,18.1.9,36.2.8,54.3h-205.1c-6.5-22.2-11.5-44.8-15-67.8-.9-5.7-1.2-12-1-19,.6-20.5,3.8-40.6,7.8-60.3h28.1c0,0,.2-.1.2-.2h0c.2-48.8.2-97.6,0-146.5,0-3.6.4-8.7,1.3-15.2.7-8.6,1.5-17.3,2.2-25.9.9-11.1,1.2-18.8,2.1-31.5,3.2-48.8,5.7-106.8,7.3-174.1,1-39.7,2.1-91,3.3-154.1.1-6,.2-16.5.2-31.6,0-5.3.1-10.5.2-15.6.3-13.5.2-24.5-.3-33,0,0,0-.2-.1-.2,0,0-.2,0-.2.1-.1.5,0,1.2,0,1.8-.1-.9.1-1.2-.3-2.1.1-8.1.2-16.3,0-24.5-.7-42.6-.9-80-.6-112.2.4-53.7-.7-110-1-158.8,0-13.3.5-26.8.7-37.8.1-13.1,1.7-28.6,2.8-41.7,1.4-16.1,2-32.4,1.8-49-.3-27.2-5.1-54.3-16.7-79.1C792.8,43.1,775.8,19.8,754.3,0h71.2Z"/>
  <path class="st0" d="M827.1,0c11.1,17.8,21.8,35.9,32.1,54.5,14.6,26.3,27.8,53.8,39.6,82.7,8.9,21.9,15.4,43.7,19.6,65.3,3.8,19.9,7.5,43.3,11,70.4.8,5.9.8,10.4,1.5,15.5.3,2.6.6,6.5.8,11.7,1.2,30.1,1.8,46.8,1.9,50.3.2,9.1,1.6,17.6,1.6,26.5,0,6.5,1.5,14.1,1.8,21.3.2,5.1,1.1,9.5,1.3,14,.2,3.9.6,7.4,1.1,10.5.9,5.1.8,10.5,1.6,15.7.9,5.4.9,11.4,1.8,17.5.3,1.9.5,4.1.6,6.7.2,4.9,1.6,11.5,1.8,17.2.2,7,1.3,13.3,1.8,20.9.3,6.3,1.3,10.7,1.4,16.2.1,8.1,1.8,17.1,1.9,25.4.2,8.2,1.4,13.8,1.7,22.6.1,3.8.4,7.1.7,10,.9,7.6.8,14.8,1.8,22.5,1,8.4.7,16,1.7,24.5,1,8.2.8,16.5,1.7,25.4.7,6.7.5,13.4,1.3,19.9,1.1,9.2,1,19.8,2.2,29.8.8,6.6.5,13.5,1.2,20.7,1,10.3,1,19.8,2,29.9.8,7.9.5,14.9,1.4,22.4.5,4.6.9,10.2,1.1,16.8.2,8.3,1.4,15.9,1.5,24.4,0,3,.3,6.4.6,10.1,1,10.3.9,21.1,2.1,30.7.9,7.2.5,14.7,1.2,22.4,1.1,12.1,1,23.4,2.2,34.4.9,8.3.5,16.6,1.4,26,.5,5.7.8,12.2,1,19.5.2,11.3,1.4,22.1,1.6,32.7.2,12.9,1.5,28.9,1.7,41.8.1,12.8,1.5,26.3,1.6,39.3,0,12.1.4,24.4,1,37,1,19.4.6,36.1,1.6,56.3.4,8.2.6,18.8.8,31.9.2,16.5,1.3,32.9,1.6,49.7.3,16.1.3,25.2,1.1,44.8.8,19.5.5,38.1,1.3,59.4,0,.3-.2.6-.5.7l-.7.2h-.5c.1-18.1-.2-36.2-.8-54.3-.7-19.5-1.1-32.4-1.2-38.8-.2-15.2-.6-28.1-1.1-38.8-.8-14.1-.4-31.2-1.1-46.8-1-22.4-1.2-47.2-1.8-64.3,0-2.9-.5-6.4-.6-9.3-.3-18.1-.9-36.1-1.8-54-.3-6.6-.5-12.1-.5-16.3,0-7.1-.8-13.9-1-21.8-.5-17.4-.8-27.2-1.1-29.3-1.1-9.1-.9-21.3-1.6-31.9-.5-7.9-1.1-12.5-1.2-17.8-.2-11.5-1.6-23.7-1.8-33.9-.2-8.4-1.2-15.5-1.4-23.6-.2-6.1-.6-12.5-1.2-19.2-.4-4.8-.6-8.4-.6-10.7,0-4.6-.8-9.5-1-14.2-.5-10.9-1.1-20.7-1.8-29.2-.5-6.5-.9-17.2-1.8-25.6-.7-6.3-.3-13-1.1-19.5-.5-3.7-.8-9.6-1.1-17.6-.3-7.7-1.3-14.7-1.5-22.8-.2-7.5-1.5-17.5-1.7-22.9-.2-9.1-1.3-16.8-1.7-26.8-.2-5.1-.6-10-1.1-14.6-.6-6.1-.4-13-1.2-19.4-1.2-9.2-1.3-18.3-2.2-28.9-.4-4.6-1-13.6-1.9-26.9-.5-8.1-.9-13-1.1-14.8-.9-7.2-.8-13.2-1.5-19.8-.7-6.9-1.2-12.9-1.3-18-.1-4.4-1.2-9.2-1.3-13.3-.1-4-.4-8.1-1-12.2-.7-5.5-1.1-9.2-1-11.3,0-4.7-1.1-9.4-1.5-15.1-.7-8.8-1.6-17.9-2.7-27.2-.2-1.6-1.2-11.5-3.2-29.5-.4-4-.7-7.9-.9-11.8-.1-3-.3-5.3-.5-6.8-1.2-8.7-1.3-17.4-2.1-26.2-1.2-12.4-.7-21.4-1.5-33.4-.8-13.8-.7-28.5-2.1-42.3-1.7-16.4-3.1-28.6-4.3-36.4-1-6.6-2.1-13.6-3.2-20.9,0-.6-1.6-9.6-4.7-27.2-1-5.6-2.1-10.8-3.2-15.6-4.9-19.5-11.5-39-19.8-58.3-11.5-26.7-22.2-48.9-32-66.5-11-19.7-21.9-38.6-32.8-56.8-1.1-1.9-2.4-3.8-3.7-5.6h1.6Z"/>
  <path class="st2" d="M514.1,148.2c0-.2.2-.3.3-.4h287c.2,0,.4.2.4.4h0c0,285.4,0,570.8,0,856.3,0,0,0,4.3.2,13,.2,13.4-1.2,26.4-2.3,39.7-1.4,12.8-3,25.6-5.1,38.4-1.7,10.8-4.2,23.4-7.6,37.9-7.4,32.2-10,43.3-14.7,66.2,0,.1,0,.2-.2.3l-.2.2c-2.2-.1-4.3-.2-6.5-.2-73.5,0-147,0-220.5,0-1.1,0-1.7-.3-2-1-5.3-12.9-8.5-24.4-8.5-38,0-9.1-.2-15.3-.6-18.7-1.4-11.3-4.6-23.6-9.4-36.8-2.1-5.6-4.1-11.3-6.2-16.9-.7-1.9-1.5-5.4-2.9-7.9-1.1-4-1.7-6.6-1.7-8,.2-7.3.3-12.2.3-14.6"/>
  <path class="st1" d="M818.3,573c.4.9.1,1.2.3,2.1,0-.6,0-1.3,0-1.8,0,0,0-.1.2-.1,0,0,.1,0,.1.2.5,8.5.6,19.5.3,33-.1,5.1-.2,10.3-.2,15.6-.5-8.1-.8-13.3-.9-15.6-.4-9.6-.3-20.7.2-33.3Z"/>
  <path class="st0" d="M801.4,1060.2c-2.2,24.5-6.2,48.7-11.9,72.6-4.6,19.2-9.4,39.7-12.4,54.2-1.1,5.3-1.8,9.1-2.1,11.4,0,.2-.2.4-.4.5-.2,0-.3.3-.3.5,0,.1,0,.3.2.3.1,0,.2,0,.4,0,0,.5-.1.8-.4,1-4.1,19.8-7.2,39.8-7.8,60.3-.2,7,.1,13.3,1,19,3.5,23,8.5,45.5,15,67.8h-2.3c-6.1-21.3-10.9-42.8-14.5-64.4,0-.2-.2-.3-.4-.3,0,0,0,0-.1,0-12.6,9.1-26.2,16.3-40.9,21.5-21.2,7.5-43.7,12.2-67.4,13.8-16.9,1.2-33.2,1.6-49,1.3-11.5-.2-24.4-.7-38.8-1.3-.2,0-.3.1-.3.3,0,0,0,0,0,0l8.8,28.9h-2c-2.9-9.3-5.7-18.7-8.4-28.1-1.1-3.9-3.5-10-7-18.3-.2-.4-.3-.8-.4-1.2-1.7-7.8-2.6-15.6-2.9-23.6-.4-11.6-.9-21.9-1.5-30.8-.4-5.8-.9-10.4-2.8-16.3-2.9-9.2-6.3-18.2-10.2-27-.1-.5,0-.8.2-1.1.2-.3.6-.3,1,0,4.4,10.1,8.2,20.3,11.5,30.8.7,2.2,1.1,4.4,1.4,6.7.9,8.9,1.4,20.4,2,36,.4,9.3,1.2,17.4,2.5,24.4,0,.5.5.9.9,1l7.6,2c.4.1.7.5.7.9v.4c0,.3-.3.6-.6.5,0,0,0,0-.1,0l-6.8-1.8c-.2,0-.3,0-.3.2,0,0,0,.1,0,.2l5.3,13.4c.1.4.5.6.9.7,13.9.6,31,1.1,51.4,1.3,6.8,0,15.8-.1,27-.7,39.1-1.9,77.2-10.2,110.3-30.9,1.9-1.2,4.8-3.5,7.2-5.3.3-.2.4-.5.4-.8-.9-12.5-.9-22.9,0-31.3,1.4-14.2,3.7-29.7,6.8-46.5,0,0,.1-.3.3-.8.1-.4,0-.7-.1-1.1,0-.1,0-.4,0-.7l.2-.2c0,0,.2-.2.2-.3,4.7-22.9,7.2-34.1,14.7-66.2,3.4-14.5,5.9-27.2,7.6-37.9,2-12.7,3.7-25.5,5.1-38.4.1-1,.5-1.4,1.2-1.3.2,0,.4.3.4.5v3.8Z"/>
  <path class="st2" d="M774.9,1199.9c-.2,0-.3,0-.4,0-.2,0-.2-.2-.2-.3,0-.3.1-.5.3-.5.2,0,.4-.3.4-.5.3-2.3,1-6.1,2.1-11.4,3-14.5,7.8-35,12.4-54.2,5.7-23.9,9.7-48.1,11.9-72.6.2-.6.3-1.2.2-2,0-.3,0-.4.2-.3,0,0,0,0,0,.1v141.4c0,.3-.2.5-.5.5,0,0,0,0,0,0h-26.4Z"/>
  <path class="st0" d="M515.5,1080.7c1.4,2.6,2.2,6,2.9,7.9,2.1,5.6,4.1,11.2,6.2,16.9,4.8,13.3,8,25.5,9.4,36.8.4,3.4.6,9.6.6,18.7,0,13.7,3.2,25.1,8.5,38-.4.5-.9.6-1.4.4-5.3-11.8-8.1-23.2-8.6-34.4-.3-6,.2-15-.6-21.7-1.1-9-2.7-17-5-24-3.1-9.9-7-20.9-11.5-33-.1-.3-.2-.7-.2-1-.1-1-.3-2.1-.7-3.2,0-.7.2-1.1.6-1.4Z"/>
  <path class="st2" d="M514.9,1082.1c.4,1.1.6,2.2.7,3.2,0,.3.1.7.2,1,4.6,12.1,8.4,23.1,11.5,33,2.2,7.1,3.9,15.1,5,24,.8,6.7.3,15.6.6,21.7.5,11.2,3.4,22.7,8.6,34.4-.4.3-.7.5-1.1.5-7.2.2-15.8.2-25.8,0-.3,0-.5-.2-.5-.5,0-31.3,0-69.2,0-113.5,0-1.8.3-3.1.8-3.9Z"/>
  <path class="st2" d="M772,1200.9c.2.4.3.7.1,1.1-.2.4-.2.7-.3.8-3.1,16.7-5.4,32.2-6.8,46.5-.8,8.4-.8,18.9,0,31.3,0,.3-.1.6-.4.8-2.4,1.8-5.4,4.1-7.2,5.3-33.1,20.7-71.2,29-110.3,30.9-11.2.5-20.2.8-27,.7-20.3-.3-37.5-.7-51.4-1.3-.4,0-.8-.3-.9-.7l-5.3-13.4c0-.1,0-.3.2-.4,0,0,.1,0,.2,0l6.8,1.8c.3,0,.6-.1.7-.4,0,0,0,0,0-.1v-.4c0-.4-.3-.8-.7-.9l-7.6-2c-.5-.1-.9-.5-.9-1-1.3-7-2.1-15.1-2.5-24.4-.7-15.6-1.1-27.1-2-36-.2-2.3-.7-4.5-1.4-6.7-3.3-10.5-7.1-20.7-11.5-30.8.5-.4,1.1-.6,1.9-.6,75.4-.1,150.8-.1,226.2,0ZM763.3,1270.9c-.2-.4-.8-.6-1.2-.3h0l-6.8,3.9c-.4.2-.6.8-.3,1.2h0c.2.5.8.6,1.2.4l6.8-3.9c.4-.2.6-.8.3-1.2h0ZM747,1279.3c-.2-.3-.5-.5-.9-.3h0l-7,3.3c-.3.2-.5.5-.3.9l.2.4c.2.3.5.5.9.3h0l7-3.3c.3-.2.5-.5.3-.9h0s-.2-.4-.2-.4ZM730.4,1286.8c-.1-.4-.6-.6-1-.5h0l-7,2.5c-.4.1-.6.6-.5,1h0c.1.5.6.8,1,.6h0l7-2.5c.4-.1.6-.6.5-1h0s0-.1,0-.1ZM713.6,1292.3c-.1-.4-.6-.7-1-.5h0l-7.7,2.3c-.4.1-.7.6-.5,1h0s0,0,0,0c.1.4.6.7,1,.5h0l7.7-2.3c.4-.1.7-.6.5-1h0s0,0,0,0ZM695.8,1296.8c0-.4-.4-.6-.8-.5h0l-7.5,1.6c-.4,0-.6.4-.5.8h0s0,.4,0,.4c0,.4.4.6.8.5h0l7.5-1.6c.4,0,.6-.4.5-.8h0s0-.4,0-.4ZM678.3,1300.5c0-.4-.5-.7-.9-.6h0l-7.5,1.2c-.4,0-.7.5-.6.9h0s0,.3,0,.3c0,.4.5.7.9.6h0l7.5-1.2c.4,0,.7-.5.6-.9h0v-.3ZM660.4,1302.9c0-.4-.4-.8-.9-.7h0l-7.4.8c-.4,0-.8.4-.7.9h0v.3c0,.4.5.8.9.7h0l7.4-.8c.4,0,.8-.4.7-.9v-.3ZM588.1,1305.6c0-.4-.2-.7-.6-.8h0l-7.4-.7c-.4,0-.7.2-.8.6h0s0,.3,0,.3c0,.4.2.7.6.8h0l7.4.7c.4,0,.7-.2.8-.6h0v-.3ZM642.6,1304.7c0-.4-.4-.8-.9-.7l-7.6.6c-.4,0-.8.4-.7.9v.2c0,.4.4.8.9.7l7.6-.6c.4,0,.8-.4.7-.9h0v-.2ZM606.1,1305.8c0-.1-.1-.3-.3-.3h-8.1c-.1,0-.3,0-.3.2v1.4c0,.1,0,.3.2.3h8.1c.1,0,.3,0,.3-.2h0v-1.4ZM624.6,1305.9c0-.4-.4-.8-.8-.8l-7.8.3c-.4,0-.8.4-.8.8v.2c0,.4.4.8.8.8l7.8-.3c.4,0,.8-.4.8-.8v-.2Z"/>
  <rect class="st0" x="754.4" y="1272.4" width="9.6" height="1.8" rx=".9" ry=".9" transform="translate(-532.4 545.7) rotate(-29.8)"/>
  <rect class="st0" x="738.5" y="1280.5" width="9" height="1.8" rx=".7" ry=".7" transform="translate(-471.9 434.1) rotate(-25)"/>
  <path class="st2" d="M780.4,1348h-202.6l-8.8-28.9c0-.2,0-.3.2-.4,0,0,0,0,0,0,14.4.6,27.3,1,38.8,1.3,15.8.3,32.1,0,49-1.3,23.7-1.7,46.2-6.3,67.4-13.8,14.7-5.2,28.3-12.4,40.9-21.5.2-.1.4,0,.5,0,0,0,0,0,0,.1,3.6,21.7,8.5,43.2,14.5,64.4Z"/>
  <rect class="st0" x="721.6" y="1287.5" width="9.1" height="1.7" rx=".8" ry=".8" transform="translate(-386.7 314.3) rotate(-19.4)"/>
  <rect class="st0" x="704.2" y="1292.8" width="9.6" height="1.7" rx=".8" ry=".8" transform="translate(-336.4 252.8) rotate(-16.4)"/>
  <rect class="st0" x="686.9" y="1297.1" width="9" height="1.7" rx=".7" ry=".7" transform="translate(-260.6 177.1) rotate(-12.3)"/>
  <rect class="st0" x="669.3" y="1300.4" width="9.1" height="1.8" rx=".8" ry=".8" transform="translate(-197.3 122.9) rotate(-9.1)"/>
  <rect class="st0" x="651.3" y="1302.6" width="9.1" height="1.9" rx=".8" ry=".8" transform="translate(-139.1 79.8) rotate(-6.3)"/>
  <rect class="st0" x="582.9" y="1300.9" width="1.7" height="8.8" rx=".7" ry=".7" transform="translate(-774 1754.2) rotate(-84.2)"/>
  <rect class="st0" x="633.4" y="1304.2" width="9.2" height="1.8" rx=".8" ry=".8" transform="translate(-107 58) rotate(-4.8)"/>
  <rect class="st0" x="600.8" y="1302.1" width="1.9" height="8.6" rx=".3" ry=".3" transform="translate(-710.9 1894.5) rotate(-89.4)"/>
  <rect class="st0" x="615.2" y="1305.3" width="9.4" height="1.8" rx=".8" ry=".8" transform="translate(-56.4 28.3) rotate(-2.5)"/>
</svg>