<?xml version="1.0" encoding="UTF-8"?>
<svg id="Layer_2" data-name="Layer 2" xmlns="http://www.w3.org/2000/svg" viewBox="0 0 143.05 154.73">
  <g id="Layer_1-2" data-name="Layer 1">
    <g>
      <path d="M40.03,82.03l-1.2-.03-.2,9.52-1.43-.53-1.24-8.31c-.6-.01-1.6-.11-3-.31-1.4-.19-2.35-.38-2.85-.55-.2,0-.6-.07-1.2-.21s-.95-.25-1.05-.33c-.4-.17-1.02-.43-1.87-.78-.85-.34-1.37-.6-1.56-.77l-1.03-.89c-.29-.25-.57-.46-.81-.64-.25-.17-.42-.3-.52-.38,0-.16-.22-.52-.66-1.07-.44-.54-.76-.9-.96-1.07-.2-.25-.46-.73-.8-1.44-.34-.71-.5-1.14-.5-1.31-.2-.17-.42-.59-.65-1.25-.24-.66-.35-1.08-.35-1.24l.09-4.21.07-3.34c0-.33.27-.9.79-1.72.52-.81.88-1.34,1.09-1.59-.3,0-.85-.06-1.65-.16-.8-.1-1.6-.18-2.4-.23-.8-.06-1.6-.14-2.4-.24-.8-.1-1.35-.15-1.65-.16-.2,0-.5-.09-.9-.27-.4-.17-.7-.34-.89-.51-.2,0-.47-.2-.82-.57-.35-.38-.62-.57-.81-.57,0-.08-.09-.37-.28-.87-.09-.25-.19-.46-.29-.62l.03-1.61.04-1.73c0-.08.11-.49.33-1.23.22-.74.33-1.23.33-1.48.2-.32.49-.88.86-1.65.37-.78.73-1.59,1.1-2.45.37-.86.71-1.65,1.03-2.39.32-.74.53-1.23.63-1.47.11-.41.63-1.2,1.56-2.38.93-1.18,1.55-2.13,1.86-2.87.21-.32.57-.98,1.09-1.96.52-.98,1.1-2.04,1.72-3.18.63-1.14,1.2-2.22,1.72-3.24.52-1.02.89-1.73,1.1-2.14.52-.98,1.22-1.93,2.09-2.86.87-.93,1.77-1.86,2.69-2.79.92-.93,1.79-1.92,2.62-2.98.82-1.05,1.45-2.2,1.88-3.42.1-.08.31-.32.62-.73.31-.4.64-.83,1-1.28.36-.44.72-.89,1.08-1.34.36-.44.64-.79.85-1.03,0-.08.18-.39.55-.92.36-.53.64-.96.85-1.28.31-.24.79-.66,1.46-1.27.66-.6,1.1-.95,1.3-1.02.21-.32.74-.83,1.61-1.51.87-.68,1.4-1.1,1.61-1.27.1,0,.46-.2,1.07-.6.61-.4,1.02-.68,1.22-.84.1,0,.45-.07,1.06-.22.2-.08.45-.15.76-.23l2.86.06,2.71.06,1.77,1.52c.2.09.47.38.81.88.34.5.61.84.81,1.01,0,.17.16.66.5,1.5.33.83.6,1.46.79,1.87.19.25.53.9,1.01,1.94.48,1.04.72,1.69.71,1.93,0,.17.06.48.21.93.14.46.3.93.5,1.43.19.5.36.98.5,1.43.14.46.21.81.2,1.06,0,.17.11.6.35,1.31.23.71.35,1.22.34,1.55.09.5.28,1.18.56,2.05.28.87.57,1.77.85,2.68.28.91.51,1.74.7,2.49.18.75.33,1.2.42,1.37,0,.41.21.93.64,1.56s.65,1.23.64,1.81c.19.58.4,1.39.63,2.43.23,1.04.34,1.64.34,1.8l-.06,2.97-.03,1.48c0,.17-.13.39-.39.67-.26.28-.49.5-.69.67-.21.24-.62.73-1.23,1.46-.62.73-.98,1.14-1.08,1.21-.21.16-.74.5-1.6,1.02-.86.52-1.4.86-1.6,1.02-.2,0-.63.07-1.28.22-.66.15-1.13.22-1.43.22h-.3s-.45-.02-.45-.02c-.1,0-.35-.09-.75-.26-.4-.17-.65-.26-.75-.26-.2-.17-.35-.38-.44-.63-.19-.5-.29-.79-.28-.87-.2-.17-.37-.5-.51-1-.14-.5-.31-.79-.51-.88,0-.33-.11-.85-.34-1.55-.24-.7-.35-1.14-.35-1.31,0-.25-.01-.68-.05-1.3-.04-.62-.1-1.3-.18-2.05-.09-.74-.15-1.44-.18-2.11-.04-.66-.05-1.07-.05-1.24-.19-.5-.33-.96-.42-1.37s-.19-.81-.28-1.18c-.09-.37-.14-.64-.13-.81-.18-.83-.59-1.82-1.22-2.99-.63-1.17-1.04-1.96-1.23-2.38-.1-.33-.33-1.1-.7-2.3-.38-1.2-.61-2.01-.7-2.43-.2-.42-.41-.95-.64-1.62-.24-.66-.5-1.33-.79-2-.39-.75-.72-1.54-1-2.37l-.9-.02c0,.25,0,.74.04,1.49.03.74.04,1.55.03,2.41-.02.87-.01,1.67.02,2.41.04.74.05,1.24.04,1.49,0,.33-.15.97-.42,1.91-.27.94-.46,1.54-.56,1.78,0-.16-.12-.54-.35-1.12-.24-.58-.36-.95-.35-1.12-.09-.25-.19-.64-.28-1.18-.09-.54-.15-1.12-.19-1.74-.04-.62-.1-1.22-.19-1.8-.09-.58-.18-.99-.28-1.24l-1.41,2.57-.26,12.24-.93,1.09-1.18-1.14.21-10.02c-.21.16-.48.44-.84.85-.36.41-.75.83-1.16,1.28-.41.44-.77.87-1.08,1.28-.31.41-.52.73-.62.98-.11.17-.42.67-.93,1.53-.52.85-1.09,1.85-1.72,2.99-.63,1.14-1.28,2.28-1.95,3.42-.68,1.14-1.17,2.04-1.49,2.69-.11.33-.37.67-.77,1.04-.41.36-.67.71-.77,1.03-.21.49-.5,1.15-.87,1.96-.37.82-.74,1.64-1.1,2.45-.37.82-.71,1.57-1.03,2.27-.31.7-.52,1.08-.62,1.16,0,.17.11.58.35,1.24.24.67.35,1.12.35,1.37.3,0,.93.04,1.88.1.95.06,1.95.1,3.01.12,1.05.02,2.05.04,3.01.06.95.02,1.68,0,2.18-.08.1,0,.4-.01.9-.04.5-.03,1.08-.08,1.73-.15.65-.07,1.28-.12,1.88-.15.6-.03,1-.04,1.21-.04.4-.07.95-.16,1.66-.27.7-.11,1.41-.2,2.11-.26.7-.07,1.31-.14,1.81-.21.5-.07.8-.11.9-.11l7.07.15,5.87.12c.3.17,1.07.44,2.31.79,1.25.36,2.12.62,2.62.8.19.17.71.61,1.55,1.33.84.72,1.35,1.25,1.55,1.58.09.25.36.71.8,1.38.44.67.65,1.13.65,1.37l-.07,3.34-.08,3.96c0,.08-.11.37-.32.86-.21.49-.32.82-.32.98-.1.16-.26.43-.47.79-.21.37-.47.75-.78,1.16-.31.41-.62.81-.93,1.22-.31.41-.52.73-.62.98-.11.25-.26.49-.47.73-.21.16-.38.34-.54.55-.16.2-.29.39-.39.55-.41.32-.92.79-1.54,1.39-.61.61-1.02.99-1.23,1.15,0,.17-.18.39-.54.67-.36.28-.64.5-.84.66-.21.16-.56.4-1.07.72-.51.32-1.04.66-1.6,1.02-.56.36-1.07.68-1.53.96-.46.28-.74.46-.84.54-.21.16-.64.4-1.29.72-.66.32-1.09.55-1.29.71-.2,0-.55.13-1.06.41-.51.28-1.09.56-1.75.83-.66.28-1.27.55-1.82.83-.56.28-.89.46-.99.54-.1,0-.3.12-.61.36-.1.08-.15.16-.16.25l-.02.74-.02,1.11c0,.25.03.84.11,1.8.08.95.13,1.96.16,3.03.03,1.07.08,2.06.16,2.97.08.91.12,1.44.12,1.61l-.09,4.45-.09,4.33c0,.16-.06.47-.17.92-.11.45-.2.92-.26,1.42-.06.49-.15.97-.25,1.42-.11.45-.17.72-.17.8-.2-.25-.36-.79-.49-1.62-.13-.83-.3-1.41-.49-1.74-.09-.66-.19-1.84-.3-3.53-.11-1.69-.23-3.51-.34-5.45-.11-1.94-.2-3.76-.26-5.45-.07-1.69-.09-2.87-.08-3.53l-.84-2.86ZM31.12,61.8l-.02.8c0,.37.03.76.12,1.18.09.42.18.87.27,1.37,0,.33.16.81.5,1.43.34.63.7,1.11,1.1,1.45,0,.08.41.5,1.25,1.26.84.76,1.45,1.27,1.85,1.52.1,0,.35.11.75.32.4.22.64.32.75.33l4.51.09,3.61.08c.1,0,.38-.07.83-.23.46-.15.93-.33,1.44-.53.5-.2,1.01-.41,1.52-.65.51-.24.86-.44,1.07-.6.2-.08.51-.28.91-.6s.71-.52.92-.6c.1-.33.39-.8.86-1.41.47-.61.7-1.08.71-1.41l.03-1.61.04-1.73c0-.16-.21-.6-.65-1.31-.44-.71-.7-1.15-.8-1.32-.2-.08-.62-.32-1.26-.71-.65-.38-1.07-.58-1.27-.58-.1-.17-.7-.32-1.79-.47-1.1-.15-1.85-.23-2.25-.23l-1.96-.04-2.11-.04c-.5-.01-1.2,0-2.11.02-.9.02-1.83.05-2.79.07-.96.02-1.81.07-2.56.13-.75.07-1.18.14-1.28.22-.2,0-.51.07-.91.23-.3.08-.56.15-.76.23,0,.33-.09.91-.26,1.73-.17.82-.25,1.36-.26,1.6Z"/>
      <path d="M97.65,88.25c-1.05-.36-1.78-.62-2.18-.77-.32-.16-.97-.48-1.94-.96s-1.62-.8-1.94-.96c-.16-.08-.53-.3-1.09-.66-.57-.36-1.15-.74-1.76-1.14-.61-.4-1.21-.8-1.82-1.2s-1.03-.68-1.27-.84c-.16-.08-.41-.26-.73-.54-.32-.28-.67-.56-1.03-.84-.36-.28-.69-.54-.97-.78-.28-.24-.47-.4-.55-.48l-9.83-9.74-.73-.96c-.16-.24-.35-.5-.55-.78-.2-.28-.39-.5-.55-.66-.16-.24-.41-.62-.73-1.14-.33-.52-.57-.86-.73-1.02l-.61-1.08c0-.16-.08-.52-.25-1.09-.17-.56-.33-.92-.49-1.09,0-.16-.09-.64-.25-1.45-.08-.32-.17-.68-.25-1.09v-2.3s-.02-2.17-.02-2.17c0-.32.07-.79.23-1.39.16-.6.24-1.07.24-1.39.16-.32.4-.83.72-1.51.32-.68.66-1.37,1.02-2.06.36-.69.68-1.31.96-1.88.28-.57.46-.93.54-1.09.16-.08.52-.43,1.08-1.03.56-.61,1.18-1.25,1.86-1.94.68-.69,1.34-1.37,1.98-2.06.64-.69,1.16-1.19,1.56-1.52.16-.16.5-.41,1.02-.73.52-.32.9-.57,1.15-.73.32-.08.97-.37,1.93-.85.96-.49,1.61-.81,1.93-.98.4-.16,1.09-.41,2.05-.73.97-.33,1.61-.57,1.93-.74.24,0,.68-.02,1.33-.07.64-.04,1.35-.11,2.11-.19.76-.08,1.49-.15,2.17-.19.68-.04,1.15-.06,1.39-.07-.08-.32-.12-.89-.13-1.69s.03-1.33.11-1.57c0-.32.2-.79.6-1.39.4-.61.68-1.07.84-1.39.16-.24.68-.77,1.56-1.58.88-.81,1.44-1.38,1.68-1.7l2.41-1.22h.85s.6,0,.6,0c.08.08.28.18.61.3.32.12.52.26.61.42l.61.48c.08.16.18.34.3.54.12.2.22.42.31.66.08.32.16.6.24.84.16.24.38.62.67,1.14.28.52.51.86.67,1.02.24.32.83.92,1.76,1.8.93.88,1.92,1.84,2.97,2.88,1.05,1.04,2.06,2.05,3.04,3.01s1.66,1.64,2.06,2.04c.08,0,.34.18.79.54.44.36.93.76,1.46,1.2.52.44,1.03.86,1.52,1.26.48.4.81.64.97.72.16.16.47.46.91.9.44.44.89.9,1.34,1.38s.87.94,1.28,1.38c.41.44.69.74.85.9.08.16.22.4.43.72.2.32.3.56.3.72-.16.24-.28.48-.36.73-.08.16-.16.34-.24.55-.08.2-.12.38-.12.54s-.04.3-.12.42c-.08.12-.16.26-.24.42-.08.24-.16.44-.24.61-.16.16-.4.38-.72.67-.32.29-.66.61-1.02.97s-.68.71-.96,1.03c-.28.32-.46.53-.54.61-.16.08-.58.29-1.27.61-.68.33-1.14.53-1.39.61h-.97s-1.09,0-1.09,0c-.16-.08-.45-.28-.85-.6-.41-.32-.85-.66-1.33-1.02s-.95-.7-1.39-1.02c-.45-.32-.75-.52-.91-.6-.49-.4-1.21-.9-2.18-1.5-.97-.6-1.54-.98-1.7-1.14-.24-.16-.89-.48-1.94-.96-1.05-.48-1.78-.76-2.18-.84-.32-.16-.97-.4-1.94-.72s-1.62-.56-1.94-.72h-1.09s.03,6.53.03,6.53h-1.09s-.03-7.12-.03-7.12h-1.09c-.08.33-.28.89-.6,1.7-.32.81-.52,1.33-.6,1.57l-.6.61c-.16-.16-.3-.48-.43-.96s-.27-.76-.43-.84c0-.32-.11-.88-.31-1.69-.21-.8-.31-1.33-.31-1.57-.24-.16-.87-.32-1.88-.47-1.01-.16-1.63-.31-1.87-.47l-3.87.02-3.38.02c-.24.08-.52.21-.84.37l-1.2.61c-.24.08-.7.29-1.39.61-.68.33-1.11.53-1.27.61l-.6.61c-.08.16-.22.41-.42.73-.2.32-.3.57-.3.73l.02,3.38.02,3.14c.16.32.37.64.61.96.16.24.31.48.43.72.12.24.22.44.31.6.16.32.41.74.73,1.26.32.52.57.82.73.9.08.16.28.42.61.78.32.36.67.74,1.03,1.14.36.4.71.78,1.03,1.14.32.36.53.62.61.78.08.24.35.56.79.96.44.4.91.84,1.4,1.32s.95.94,1.4,1.38c.44.44.75.78.91,1.02.16.16.44.4.85.72.4.32.85.7,1.33,1.14s.97.84,1.46,1.2.85.58,1.09.66c.16.16.57.5,1.21,1.02.64.52,1.05.9,1.21,1.14.24.16.56.36.97.6.4.24.83.48,1.27.72.44.24.85.46,1.21.66.36.2.59.34.67.42.16.16.77.48,1.82.96,1.05.48,1.73.8,2.06.96.16.08.34.16.55.24.2.08.38.16.54.24l.73.24h2.54s2.17-.02,2.17-.02c.08,0,.18-.08.3-.24.12-.16.26-.32.42-.49l.48-1.09c.16-.24.3-.68.42-1.33.12-.64.18-1.09.17-1.33.08-.16.18-.46.3-.91.12-.44.22-.93.3-1.45.08-.52.13-1.01.17-1.45s.06-.74.06-.91c0-.32.1-.77.3-1.33.2-.56.3-.93.3-1.09.08-.16.18-.44.3-.85.12-.4.26-.61.42-.61.08-.16.3-.44.66-.85.36-.4.76-.81,1.2-1.21.44-.4.82-.79,1.14-1.15.32-.37.56-.63.72-.79.16-.08.36-.16.6-.24.48-.16.76-.25.85-.25.16-.08.34-.16.54-.24.2-.08.38-.2.54-.36.24-.16.48-.28.72-.37.16.16.44.4.85.72.4.32.61.56.61.72v2.42s.02,2.17.02,2.17c0,.16-.08.75-.23,1.75-.16,1.01-.23,1.8-.23,2.36-.16.16-.32.57-.48,1.21-.16.65-.32,1.05-.48,1.21,0,.24-.18.77-.54,1.57-.36.81-.58,1.37-.66,1.69,0,.24-.2.73-.6,1.45-.4.73-.68,1.13-.84,1.21,0,.16-.14.51-.42,1.03-.28.53-.5.87-.66,1.03-.32.24-.72.71-1.2,1.4-.48.69-.8,1.11-.96,1.27l-1.08,1.09c-.16.16-.58.5-1.26,1.03-.68.53-1.19.91-1.5,1.15-.16.08-.34.16-.54.25-.2.08-.38.2-.54.36l-.72.49c-.08.08-.28.18-.6.3-.32.12-.66.26-1.03.43-.36.16-.7.3-1.02.43-.32.12-.53.18-.6.18-.16.16-.44.3-.84.43-.4.12-.6.26-.6.43l-.48,1.09c-.16.16-.3.32-.42.49-.12.16-.22.24-.3.24,0-.08-.06-.36-.19-.84-.12-.48-.27-.8-.43-.96,0-.24-.08-.36-.24-.36h-.12c-.08,0-.24.12-.48.37,0,.56-.03,1.57-.11,3.02s-.13,3.02-.16,4.71c-.03,1.69-.09,3.26-.16,4.71-.07,1.45-.11,2.46-.11,3.02,0,.24-.08.95-.23,2.12-.16,1.17-.23,2.03-.23,2.6-.16.4-.32,1.01-.47,1.81-.16.81-.24,1.29-.24,1.45,0,.08-.1.28-.3.61-.2.32-.3.52-.3.6l-.12-25.49c-.24,0-.89-.18-1.94-.53Z"/>
      <path d="M20.71,127.81c.04-.22.06-.64.03-1.24-.02-.61-.03-.97-.03-1.11-.09,0-.27.05-.54.13-.27.09-.43.18-.47.27-.09.04-.26.1-.5.17-.25.07-.52.15-.81.24-.29.09-.56.18-.81.27-.25.09-.44.13-.57.13-.09.09-.33.2-.71.34-.38.13-.62.25-.71.34-.09.18-.17.5-.24.97s-.15.96-.24,1.48c-.09.52-.18,1.01-.27,1.48-.09.47-.16.8-.2.97v.5c0,.25-.01.52-.03.81-.02.29-.04.56-.07.81-.02.25-.06.41-.1.5,0,.05-.05.2-.13.47-.09.27-.18.43-.27.47-.09.13-.24.34-.44.61s-.33.45-.37.54c-.09.09-.34.31-.74.67-.4.36-.67.56-.81.61-.09.04-.28.16-.57.34-.29.18-.5.27-.64.27-.18.04-.34.09-.47.13-.36.09-.56.13-.61.13l-.2-.07h-.13c-.09-.04-.25-.18-.47-.4l-.27-.27.87-10.22c-.09.05-.26.05-.5,0-.25-.04-.5-.1-.77-.17s-.52-.13-.74-.2-.36-.14-.4-.24c-.09-.04-.27-.21-.54-.5-.27-.29-.45-.48-.54-.57.04-.09.07-.19.07-.3v-.3c0-.09.01-.19.03-.3.02-.11.03-.21.03-.3s.12-.31.37-.67c.25-.36.44-.58.57-.67.04-.09.16-.24.34-.44.18-.2.38-.4.61-.6.22-.2.43-.39.61-.57.18-.18.31-.31.4-.4-.09-.13-.15-.39-.17-.77-.02-.38-.08-.62-.17-.71,0-.18-.03-.45-.1-.81-.07-.36-.15-.74-.24-1.14-.09-.4-.17-.77-.24-1.11-.07-.34-.1-.55-.1-.64-.09-.22-.24-.71-.44-1.45s-.35-1.22-.44-1.45c0-.13-.06-.36-.17-.67-.11-.31-.24-.65-.37-1.01-.13-.36-.27-.71-.4-1.04-.13-.34-.22-.57-.27-.71.04-.18-.02-.47-.2-.87-.18-.4-.31-.65-.4-.74,0-.09-.12-.37-.37-.84-.25-.47-.41-.82-.5-1.04-.09-.09-.2-.28-.34-.57-.13-.29-.25-.48-.34-.57s-.26-.28-.5-.57c-.25-.29-.41-.46-.5-.5-.04-.13-.24-.38-.57-.74-.34-.36-.55-.54-.64-.54-.09-.04-.19-.11-.3-.2-.11-.09-.14-.18-.1-.27-.09-.09-.2-.27-.34-.54-.13-.27-.25-.47-.34-.61,0-.09-.03-.27-.1-.54s-.1-.42-.1-.47c.05-.09.11-.27.2-.54.09-.27.16-.45.2-.54.09-.13.22-.34.4-.6.18-.27.31-.45.4-.54.18-.13.48-.35.91-.64.43-.29.66-.46.71-.5.09-.09.34-.24.74-.44.4-.2.65-.28.74-.24h.74c.09.05.21.11.37.2.16.09.28.13.37.13.04.09.2.28.47.57.27.29.55.6.84.94.29.34.56.64.81.91s.41.43.5.47c.09.09.31.24.67.44.36.2.6.35.74.44.18.09.53.25,1.04.47.52.22.86.4,1.04.54.13,0,.36.06.67.17.31.11.66.21,1.04.3.38.09.75.19,1.11.3.36.11.6.17.74.17.31.04.83.16,1.55.34.72.18,1.19.27,1.41.27.31.05,1.1.16,2.35.34,1.25.18,2.6.37,4.03.57,1.43.2,2.79.4,4.07.6,1.28.2,2.07.35,2.39.44.13,0,.36.03.67.1.31.07.64.13.97.2.34.07.67.12,1.01.17s.57.07.71.07l.54.27c.36.18.63.27.81.27.13,0,.35.07.64.2.29.13.48.23.57.27.09.09.3.24.64.44.34.2.5.35.5.44.09.04.21.17.37.37.16.2.28.33.37.37l.2.4.13.27c-.05.09-.07.31-.07.67v.87c-.04.13-.09.4-.13.81-.05.4-.07.63-.07.67l-.13.4c-.05.09-.1.2-.17.34-.07.13-.12.25-.17.34-.09.13-.24.38-.44.74-.2.36-.37.58-.5.67-.05.09-.21.3-.5.64-.29.34-.48.55-.57.64-.22.18-.55.45-.97.81-.43.36-.86.74-1.31,1.14-.45.4-.86.77-1.24,1.11-.38.34-.62.55-.71.64-.04,0-.2.08-.47.24s-.58.34-.94.54c-.36.2-.71.4-1.04.6s-.59.37-.77.5c-.09.05-.29.15-.6.3-.31.16-.52.26-.61.3-.09.09-.41.27-.97.54-.56.27-1.15.55-1.78.84-.63.29-1.23.57-1.81.84-.58.27-.96.43-1.14.47,0,.09-.04.17-.13.24-.09.07-.13.12-.13.17-.04.23-.1.56-.17,1.01-.07.45-.12.92-.17,1.41-.05.49-.09.96-.13,1.41s-.07.74-.07.87-.01.38-.03.74c-.02.36-.05.73-.07,1.11-.02.38-.05.74-.07,1.07-.02.34-.03.57-.03.71-.18,2.2-.34,3.72-.47,4.57-.13.85-.22,1.24-.27,1.18s-.08-.49-.1-1.28c-.02-.78-.02-1.68,0-2.69.02-1.01.06-2.03.1-3.06s.09-1.84.13-2.42c0-.09.01-.4.03-.94.02-.54.03-.92.03-1.14ZM12.5,108.65c.04.31.14.84.3,1.58s.34,1.54.54,2.39c.2.85.38,1.66.54,2.42.16.76.28,1.3.37,1.61.04.18.12.52.24,1.01.11.49.22,1.04.34,1.65.11.61.2,1.18.27,1.71.07.54.1.92.1,1.14.09.04.18.07.27.07h.34s.09.01.13.03c.04.02.11.03.2.03h.2s.21-.04.5-.13c.29-.09.48-.13.57-.13.22-.09.54-.2.94-.34.4-.13.81-.26,1.21-.37.4-.11.75-.21,1.04-.3.29-.09.46-.13.5-.13.18-.04.48-.14.91-.3.43-.16.88-.34,1.38-.54.49-.2.95-.38,1.38-.54.43-.16.75-.28.97-.37.04-.09.32-.25.84-.47.51-.22.86-.43,1.04-.61.13-.04.32-.12.57-.24.25-.11.49-.24.74-.37.25-.13.47-.26.67-.37.2-.11.32-.19.37-.24.04,0,.17-.07.37-.2.2-.13.42-.28.67-.44.25-.16.48-.32.71-.5.22-.18.38-.34.47-.47.09-.04.19-.1.3-.17.11-.07.21-.14.3-.24.04-.09.17-.26.37-.5.2-.25.3-.41.3-.5l.13-.34s-.07-.02-.07-.07v-.34c-.09-.09-.18-.2-.27-.34-.18-.27-.27-.43-.27-.47-.09-.04-.21-.09-.37-.13-.16-.04-.28-.11-.37-.2-.13,0-.34-.09-.61-.27-.13-.09-.27-.16-.4-.2-.27-.04-.67-.13-1.21-.27-.54-.13-.9-.25-1.08-.34-.76-.13-1.39-.24-1.88-.3-.49-.07-1-.13-1.51-.2-.52-.07-.93-.12-1.24-.17h-.47c0,.09-.02.28-.07.57-.05.29-.09.6-.13.94-.05.34-.11.67-.2,1.01-.09.34-.16.57-.2.71-.04.18-.08.39-.1.64-.02.25-.08.5-.17.77-.09.31-.16.65-.2,1.01-.09.05-.2.17-.34.37-.13.2-.25.3-.34.3l.6-6.45-.6-.07c-.05.13-.11.43-.2.87-.09.45-.2.76-.34.94,0,.05-.08.09-.24.13-.16.04-.28.07-.37.07l.2-2.08c-1.12-.18-2.2-.36-3.23-.54-.9-.18-1.83-.36-2.79-.54-.96-.18-1.76-.34-2.39-.47h-.27v.27Z"/>
      <path d="M47.18,134.2s-.28.03-.72.09c-.44.06-.74.09-.9.09-.04-.08-.14-.22-.3-.42-.16-.2-.24-.32-.24-.36l.54-3.77c-.12-.08-.35-.18-.69-.3-.34-.12-.55-.2-.63-.24-.16-.08-.35-.27-.57-.57-.22-.3-.33-.47-.33-.51v-.72c.04-.16.09-.34.15-.54.06-.2.09-.32.09-.36,0-.12.02-.26.06-.42.08-.32.16-.52.24-.6.04-.04.18-.23.42-.57.24-.34.4-.53.48-.57.08-.12.18-.26.3-.42.08-.12.15-.23.21-.33.06-.1.13-.19.21-.27v-.78c0-.12.04-.3.12-.54l.12-.36c0-.08-.05-.3-.15-.66-.1-.36-.19-.66-.27-.9.08-.12.05-.48-.09-1.08-.14-.6-.23-1.04-.27-1.32,0-.08,0-.24.03-.48.02-.24,0-.38-.03-.42-.08-.16-.16-.39-.24-.69-.08-.3-.16-.58-.24-.84-.08-.26-.14-.5-.18-.72-.04-.22-.06-.35-.06-.39-.08-.2-.22-.53-.42-.99-.2-.46-.4-.95-.6-1.47-.2-.52-.39-1-.57-1.44-.18-.44-.29-.76-.33-.96,0-.12-.11-.34-.33-.66-.22-.32-.37-.48-.45-.48-.08-.08-.24-.2-.48-.36-.24-.16-.5-.33-.78-.51-.28-.18-.54-.35-.78-.51-.24-.16-.38-.24-.42-.24s-.16-.16-.36-.48c-.2-.32-.38-.58-.54-.78,0-.08-.04-.19-.12-.33-.08-.14-.12-.25-.12-.33v-.3c0-.08,0-.15.03-.21.02-.06.03-.13.03-.21,0-.04.03-.14.09-.3.06-.16.09-.26.09-.3.04-.04.08-.1.12-.18.04-.08.08-.13.12-.15.04-.02.06-.07.06-.15.04-.04.15-.18.33-.42.18-.24.27-.4.27-.48.08-.08.29-.24.63-.48.34-.24.55-.4.63-.48s.26-.16.54-.24c.28-.08.46-.12.54-.12l.36-.12c.08-.04.17-.08.27-.12.1-.04.19-.06.27-.06h.3c.12.08.36.22.72.42.36.2.56.36.6.48.08.04.23.16.45.36.22.2.46.42.72.66.26.24.5.47.72.69.22.22.37.37.45.45.16.08.39.18.69.3.3.12.53.18.69.18.48.08,1.37.19,2.66.33,1.3.14,2.68.3,4.13.48,1.46.18,2.82.35,4.1.51,1.28.16,2.16.26,2.64.3.16.12.57.24,1.23.36.66.12,1.13.18,1.41.18.2.2.5.34.9.42.4.08.64.14.72.18.08.04.25.12.51.24.26.12.53.25.81.39.28.14.56.27.84.39.28.12.48.2.6.24.08,0,.2.05.36.15.16.1.28.15.36.15.16.2.32.4.48.6.16.2.28.3.36.3.04.08.15.24.33.48s.27.4.27.48,0,.26-.03.54c-.02.28-.03.5-.03.66-.12.12-.18.34-.18.66v.42s-.05.14-.15.3c-.1.16-.21.34-.33.54-.12.2-.25.4-.39.6-.14.2-.25.34-.33.42s-.2.22-.36.42c-.16.2-.28.34-.36.42l-.9.9c-.4.4-.64.64-.72.72-.24.2-.68.55-1.32,1.05-.64.5-1.32,1.04-2.04,1.62-.72.58-1.4,1.13-2.04,1.65-.64.52-1.08.88-1.32,1.08.08,0,.15.05.21.15.06.1.13.19.21.27.08.04.22.13.42.27.2.14.4.3.6.48.2.18.39.34.57.48s.31.21.39.21c.12.12.34.29.66.51.32.22.64.45.96.69.32.24.63.46.93.66.3.2.51.36.63.48.04.08.16.2.36.36.2.16.34.32.42.48.16.08.37.23.63.45.26.22.52.44.78.66.26.22.49.43.69.63.2.2.32.34.36.42,0,.08.07.2.21.36.14.16.29.33.45.51.16.18.31.35.45.51.14.16.21.26.21.3.16.24.28.48.36.72-.04.12-.06.22-.06.3v1.08c-.08.04-.22.21-.42.51-.2.3-.34.49-.42.57-.08.12-.32.33-.72.63-.4.3-.66.47-.78.51-.08.08-.28.18-.6.3-.32.12-.52.2-.6.24h-.54c-.08,0-.17-.01-.27-.03-.1-.02-.19-.03-.27-.03-.12-.12-.3-.34-.54-.66-.24-.32-.49-.64-.75-.96-.26-.32-.51-.64-.75-.96s-.42-.54-.54-.66c-.08,0-.27-.13-.57-.39s-.57-.49-.81-.69c0-.08-.1-.2-.3-.36-.2-.16-.3-.28-.3-.36-.2-.12-.47-.31-.81-.57-.34-.26-.68-.51-1.02-.75-.34-.24-.64-.45-.9-.63-.26-.18-.41-.29-.45-.33-.08-.04-.26-.15-.54-.33s-.59-.38-.93-.6c-.34-.22-.66-.41-.96-.57-.3-.16-.51-.28-.63-.36-.08-.08-.18-.14-.3-.18s-.22-.1-.3-.18l-.36-.18c-.08,0-.19.04-.33.12-.14.08-.25.16-.33.24-.12,0-.34.12-.66.36-.32.24-.54.36-.66.36-.08.04-.2.14-.36.3-.16.16-.28.26-.36.3-.08.12-.16.35-.24.69-.08.34-.16.69-.24,1.05-.08.36-.15.7-.21,1.02-.06.32-.11.54-.15.66,0,.04-.03.14-.09.3-.06.16-.12.33-.18.51-.06.18-.13.35-.21.51-.08.16-.12.26-.12.3-.04.08-.11.24-.21.48-.1.24-.2.49-.3.75-.1.26-.2.51-.3.75s-.17.4-.21.48l-.3.3c-.12.08-.22.18-.3.3l.24-1.86c-.08.12-.22.41-.42.87-.2.46-.32.77-.36.93,0,.12-.03.37-.09.75-.06.38-.12.77-.18,1.17s-.12.79-.18,1.17c-.06.38-.09.63-.09.75l-.48-.6.54-4.79ZM49.1,109.94c.04.24.14.69.3,1.35.16.66.32,1.37.48,2.13s.32,1.47.48,2.13c.16.66.28,1.11.36,1.35.04.08.09.23.15.45s.11.47.15.75c.04.28.07.54.09.78.02.24.03.38.03.42l.18.54.12.36h.54c.16,0,.44.01.84.03.4.02.83.05,1.29.09.46.04.89.07,1.29.09.4.02.7.05.9.09l.6-.3c.12-.08.31-.22.57-.42.26-.2.54-.4.84-.6.3-.2.59-.39.87-.57s.48-.31.6-.39c.2-.16.53-.44.99-.84.46-.4.95-.81,1.47-1.23s1-.81,1.44-1.17c.44-.36.76-.62.96-.78.08,0,.17-.1.27-.3.1-.2.19-.34.27-.42-.08,0-.19-.09-.33-.27-.14-.18-.21-.31-.21-.39-.12,0-.34-.13-.66-.39-.32-.26-.54-.39-.66-.39-.04-.04-.17-.09-.39-.15-.22-.06-.46-.14-.72-.24-.26-.1-.54-.2-.84-.3-.3-.1-.53-.21-.69-.33-.2-.04-.47-.11-.81-.21-.34-.1-.55-.15-.63-.15-.2-.04-.38-.08-.54-.12-.4-.08-.66-.12-.78-.12h-1.26c-.16.04-.27.18-.33.42-.06.24-.13.4-.21.48,0,.08-.05.26-.15.54-.1.28-.15.46-.15.54h-.24c0-.16-.05-.53-.15-1.11-.1-.58-.15-.97-.15-1.17v-.12s-.02-.08-.06-.12h-.48c-.04.12-.14.43-.3.93-.16.5-.24.81-.24.93,0,.16-.06.36-.18.6-.12.24-.18.4-.18.48h-.24l-.18-.18s-.02-.21-.06-.51c-.04-.3-.06-.51-.06-.63-.08-.16-.11-.48-.09-.96.02-.48,0-.8-.09-.96l-3.77-.24-.24.6Z"/>
      <path d="M72.29,137.02c-.26.08-.43.12-.51.12-.04-.04-.15-.14-.33-.3-.18-.16-.27-.26-.27-.3v-7.49c0-.28,0-.99.03-2.13s.05-2.49.09-4.04c.04-1.56.09-3.23.15-5.03.06-1.8.11-3.47.15-5.03.04-1.56.08-2.91.12-4.07.04-1.16.06-1.88.06-2.16.08-.12.25-.43.51-.93.26-.5.43-.81.51-.93,0-.08.13-.25.39-.51.26-.26.43-.43.51-.51.08-.04.24-.14.48-.3s.4-.26.48-.3c.12-.12.24-.22.36-.3.08-.08.18-.14.3-.18h.96c.08,0,.16.06.24.18.08.12.12.22.12.3,0,.04.05.18.15.42.1.24.15.4.15.48v1.32c0,.08-.02.25-.06.51-.04.26-.07.53-.09.81-.02.28-.05.55-.09.81-.04.26-.06.43-.06.51,0,.36-.02,1.19-.06,2.49-.04,1.3-.09,2.84-.15,4.61-.06,1.78-.13,3.67-.21,5.69-.08,2.02-.15,3.91-.21,5.69-.06,1.78-.12,3.31-.18,4.61-.06,1.3-.09,2.13-.09,2.49-.08.16-.15.36-.21.6s-.13.4-.21.48c-.12.12-.22.26-.3.42l-.36.48c0,.08-.04.2-.12.36-.08.16-.12.28-.12.36,0,.16-.02.45-.06.87-.04.42-.07.87-.09,1.35-.02.48-.05.93-.09,1.35-.04.42-.06.71-.06.87-.04.2-.09.48-.15.84-.06.36-.11.73-.15,1.11-.04.38-.07.73-.09,1.05-.02.32-.03.54-.03.66,0,.08-.05.38-.15.9-.1.52-.15.86-.15,1.02,0,.04-.04.24-.12.6-.08.36-.16.6-.24.72,0,.08-.04.24-.12.48-.08.24-.12.38-.12.42v-11.56c-.08,0-.25.04-.51.12Z"/>
      <path d="M95.61,136.38c.04-.09-.02-.16-.17-.22-.15-.06-.3-.15-.43-.28l-.54,6.67-.44.27c-.09-.08-.14-.26-.15-.54s-.06-.44-.15-.48c0-.13,0-.45,0-.97,0-.52,0-1.07,0-1.65,0-.58.01-1.13.04-1.65.02-.52.03-.84.03-.97s0-.37,0-.71c0-.34.02-.69.03-1.03,0-.34,0-.67,0-.97l-.02-.58s-.09-.1-.14-.19c-.09-.17-.14-.3-.14-.38-.09-.13-.26-.38-.51-.76-.25-.38-.42-.63-.51-.76-.09-.13-.22-.33-.38-.6-.16-.27-.33-.56-.51-.85-.18-.29-.35-.56-.51-.79-.16-.23-.26-.39-.31-.47-.13-.08-.37-.3-.7-.65-.34-.35-.67-.73-1.01-1.13-.34-.4-.65-.78-.95-1.16-.29-.38-.51-.65-.64-.82-.04.09-.07.24-.08.46-.01.22-.02.35-.02.39-.04.13-.05.33-.04.58,0,.13-.01.24-.05.32,0,.22.04.72.09,1.51.05.8.1,1.64.16,2.55s.11,1.75.16,2.55c.05.8.08,1.3.09,1.51-.04.04-.06.15-.05.33,0,.09-.02.17-.05.26l.02.58c-.09.05-.24.23-.46.57-.23.33-.38.52-.46.56-.08.09-.22.22-.41.4-.19.18-.41.37-.66.57-.25.2-.49.41-.72.61s-.39.35-.47.44l-.64.28c-.09,0-.22,0-.39-.02-.17-.02-.3-.02-.39-.02s-.16,0-.23-.02c-.06-.02-.14-.03-.23-.02s-.15-.02-.2-.06l-.27-.31v-.39c-.02-.22-.03-.45-.04-.71s-.04-.53-.09-.8c-.05-.28-.1-.48-.15-.61l-.02-.48-.03-.87c-.01-.3-.01-.59,0-.87.01-.28.02-.46.01-.55l-.02-.55-.03-.77c-.01-.28-.03-.54-.06-.77-.03-.23-.07-.39-.11-.48,0-.21-.03-.54-.07-.97-.04-.43-.06-.87-.08-1.32l-.04-1.23-.02-.68c0-.26-.06-.65-.14-1.19-.08-.53-.16-1.08-.22-1.64-.06-.56-.14-1.07-.22-1.54-.08-.47-.12-.77-.13-.9,0-.17-.04-.47-.1-.9-.06-.43-.13-.87-.21-1.32s-.15-.88-.21-1.28c-.06-.41-.11-.67-.16-.8,0-.09-.04-.29-.12-.61-.08-.32-.15-.65-.23-.99-.08-.34-.15-.68-.23-1.02-.08-.34-.12-.58-.12-.71.17,0,.28-.07.32-.2.04-.04.07-.15.09-.33.01-.17.03-.36.04-.55s.02-.38.01-.55v-.32c.07,0,.21-.14.39-.4.18-.27.32-.42.4-.47.33-.27.61-.52.81-.74.04,0,.21-.08.51-.25.29-.16.48-.29.57-.38.04-.04.1-.07.19-.07s.17-.03.26-.07c.13,0,.23-.03.32-.08.04.04.11.06.2.06s.15,0,.19.03c.04.02.11.03.19.03h.39c.09.03.2.13.33.3.13.17.25.31.34.44,0,.04.05.15.14.32.09.17.19.35.31.54.11.19.21.38.28.57.07.19.11.31.11.35.09.21.28.49.55.82.27.34.41.55.41.63.05.09.2.28.47.6.27.31.57.65.91,1,.34.35.65.71.94,1.06.29.36.51.64.64.85.27.25.71.73,1.34,1.44.63.71,1.29,1.47,1.99,2.29.7.81,1.36,1.59,1.99,2.32.63.73,1.08,1.24,1.35,1.53v-.19s.05-.13.05-.13c0-.13-.03-.35-.09-.67-.06-.32-.11-.65-.17-1-.06-.34-.11-.66-.16-.96-.05-.3-.08-.49-.09-.58-.01-.3-.08-.99-.2-2.06-.13-1.07-.25-2.24-.38-3.51-.13-1.26-.26-2.43-.38-3.51-.13-1.07-.21-1.76-.27-2.06,0-.21-.04-.41-.08-.58-.05-.13-.07-.28-.08-.45l-.52-.11c-.17-.04-.33-.1-.46-.18-.3-.07-.42-.26-.34-.57v-.13s-.01-.26-.01-.26v-.39c-.02-.09,0-.15.04-.2.04-.09.12-.25.24-.49.12-.24.22-.41.31-.5,0-.09.06-.2.18-.33.12-.13.18-.24.18-.33.08-.13.21-.33.4-.6.18-.26.3-.38.34-.33.12-.22.37-.47.75-.74.38-.27.67-.48.88-.61.13-.09.27-.18.44-.27.34-.18.53-.28.57-.28.08-.05.21-.11.38-.21.17-.09.3-.12.38-.08h.13s.09,0,.13.02c.04.02.11.03.19.03h.32s.26-.02.26-.02c.09.04.2.17.34.38.14.21.23.36.27.44,0,.13.03.28.08.45.1.34.15.53.15.58,0,.09.04.35.13.8s.1.78.07,1c0,.17.06.63.15,1.38.09.75.17,1.58.25,2.48.07.9.15,1.74.22,2.51s.11,1.25.12,1.42c.05.21.1.5.16.87.06.36.1.74.14,1.13.03.39.07.72.1,1,.03.28.05.44.05.48.11.64.26,1.61.46,2.89.2,1.28.43,2.74.71,4.37.27,1.63.56,3.33.86,5.1.3,1.78.59,3.47.86,5.07s.52,3.05.74,4.33c.22,1.28.38,2.22.49,2.82l-.05.33c0,.17-.01.32-.05.45,0,.09-.11.28-.33.59-.23.31-.36.51-.4.6-.04.04-.16.14-.34.3-.19.16-.39.33-.6.51-.21.18-.41.35-.6.5-.19.16-.3.26-.34.3-.08.09-.31.19-.67.31-.36.12-.63.23-.8.32-.09,0-.16,0-.23-.02-.06-.02-.12-.03-.16-.03l-.33-.05c-.09-.08-.24-.27-.44-.57-.2-.29-.35-.48-.44-.57-.14-.17-.33-.52-.59-1.04-.26-.53-.52-1.09-.8-1.68-.28-.59-.55-1.15-.8-1.68-.26-.53-.45-.9-.59-1.11l-.58-.04-.69,7.71-.42.92-.03-.74c-.01-.37-.02-.74,0-1.13,0-.39,0-.76,0-1.13s-.04-.61-.09-.74c.03-.3.08-.79.14-1.46.06-.67.12-1.37.18-2.11.06-.74.12-1.44.18-2.11.06-.67.11-1.13.14-1.39l-.28-.64Z"/>
      <path d="M107.51,102.85c-.26-.04-.72-.09-1.37-.13-.65-.04-1.34-.08-2.06-.1s-1.39-.05-2.02-.1c-.63-.04-1.08-.07-1.34-.07-.04,0-.17,0-.39-.03-.22-.02-.46-.04-.72-.06s-.51-.05-.75-.1c-.24-.04-.4-.09-.49-.13-.13,0-.41-.05-.85-.16-.44-.11-.74-.21-.91-.29-.22,0-.5-.05-.85-.16-.35-.11-.54-.16-.59-.16-.09,0-.22-.04-.39-.13-.17-.09-.3-.13-.39-.13-.09-.17-.27-.39-.56-.65-.28-.26-.42-.44-.42-.52v-.59c0-.17.04-.39.13-.65.09-.26.13-.44.13-.52.09-.09.21-.26.36-.52.15-.26.27-.41.36-.46.09-.09.26-.27.52-.55.26-.28.44-.47.52-.56.09,0,.27-.1.56-.29.28-.2.49-.32.62-.36.13-.13.24-.22.33-.26.09-.04.17-.07.26-.07h1.76c.17,0,.3.11.39.33,0,.04.04.15.13.33.04.09.11.2.2.33.09,0,.26.05.52.16.26.11.43.16.52.16.17.09.52.19,1.05.29.52.11.89.16,1.11.16.17,0,.46.02.85.06.39.04.79.08,1.21.1.41.02.79.05,1.14.1.35.04.57.07.65.07h3.2c.09,0,.34-.11.75-.33.41-.22.66-.37.75-.46h1.37c.04.09.16.22.36.39.2.17.29.3.29.39h2.87c.17,0,.62-.02,1.34-.07.72-.04,1.5-.08,2.35-.1.85-.02,1.64-.05,2.38-.1.74-.04,1.2-.06,1.37-.06h7.32c.09,0,.17.05.26.16.09.11.17.16.26.16v.98c0,.09-.07.22-.2.39-.13.17-.24.3-.33.39-.04.13-.15.33-.33.59-.17.26-.28.39-.33.39,0,.09-.03.16-.1.23l-.23.23c-.09.13-.17.24-.26.33-.09.04-.27.15-.56.33-.28.17-.49.28-.62.33-.09.09-.22.17-.39.26-.09.04-.15.06-.2.06l-7.25.78v21.75c0-.09-.06-.22-.16-.39-.11-.17-.16-.3-.16-.39s-.01-.26-.03-.52c-.02-.26-.05-.53-.1-.82-.04-.28-.08-.57-.1-.85-.02-.28-.03-.47-.03-.56-.04-.35-.09-.99-.13-1.93-.04-.94-.09-2.02-.13-3.27s-.1-2.56-.16-3.95c-.07-1.39-.12-2.7-.16-3.92s-.08-2.3-.1-3.23c-.02-.94-.03-1.58-.03-1.93h-.46c0,.13-.03.44-.1.91-.06.48-.14.76-.23.85,0,.09-.01.41-.03.98-.02.57-.05,1.18-.1,1.83-.04.65-.08,1.26-.1,1.83-.02.57-.03.87-.03.91-.04-.04-.09-.32-.13-.82-.04-.5-.08-1.05-.1-1.63-.02-.59-.05-1.13-.1-1.63-.04-.5-.07-.77-.07-.82,0-.13-.05-.47-.16-1.01-.11-.54-.16-.88-.16-1.01h-4.31v.78c.04.13.09.51.13,1.14.04.63.11,1.38.2,2.25.09.87.16,1.82.23,2.84.07,1.02.14,2,.23,2.94.09.94.15,1.76.2,2.48s.09,1.23.13,1.53c0,.09,0,.24.03.46.02.22.05.46.1.72.04.26.09.51.13.75.04.24.09.38.13.43,0,.17.03.47.1.88.06.41.13.85.2,1.31.07.46.13.88.2,1.27.07.39.1.65.1.78.09.13.16.41.23.85.06.44.14.74.23.92.04.17.11.48.2.91.04.17.09.35.13.52.04.09.27.16.69.23.41.06.66.1.75.1,0,.09.05.22.16.39.11.17.16.3.16.39.04.04.1.34.16.88.07.54.14.97.23,1.27v.26c-.09.26-.16.61-.23,1.05-.06.44-.12.68-.16.72,0,.09-.05.22-.16.39-.11.17-.16.3-.16.39l-1.04,1.31c-.09.09-.32.26-.69.52-.37.26-.64.48-.82.65-.04,0-.15.04-.33.13-.17.09-.28.13-.33.13h-1.76l-.33-.26c-.09-.17-.24-.45-.46-.82-.22-.37-.33-.6-.33-.69,0-.13-.1-.49-.29-1.08-.2-.59-.32-1.03-.36-1.34-.04-.13-.1-.35-.16-.65-.07-.3-.14-.62-.23-.95-.09-.33-.16-.63-.23-.91-.07-.28-.12-.49-.16-.62,0-.13-.02-.39-.07-.78-.04-.39-.1-.82-.16-1.27-.07-.46-.13-.89-.2-1.31-.06-.41-.12-.71-.16-.88-.04-.26-.1-.64-.16-1.14s-.14-1.01-.23-1.54c-.09-.52-.16-1-.23-1.44-.07-.44-.1-.72-.1-.85-.04-.22-.12-.77-.23-1.67-.11-.89-.23-1.86-.36-2.91-.13-1.05-.24-2.01-.33-2.91-.09-.89-.13-1.45-.13-1.67-.04-.13-.09-.54-.13-1.24-.04-.7-.08-1.46-.1-2.29-.02-.83-.05-1.58-.1-2.25-.04-.68-.07-1.06-.07-1.14Z"/>
      <path d="M132.75,143.06h-.48v4.61h-.54l-.6-4.25c-.24,0-.64-.04-1.2-.12-.56-.08-.94-.16-1.14-.24-.08,0-.24-.03-.48-.09s-.38-.11-.42-.15c-.16-.08-.41-.2-.75-.36-.34-.16-.55-.28-.63-.36l-.42-.42c-.12-.12-.23-.22-.33-.3-.1-.08-.17-.14-.21-.18,0-.08-.09-.25-.27-.51-.18-.26-.31-.43-.39-.51-.08-.12-.19-.35-.33-.69-.14-.34-.21-.55-.21-.63-.08-.08-.17-.28-.27-.6-.1-.32-.15-.52-.15-.6v-3.65c0-.16.1-.44.3-.84.2-.4.34-.66.42-.78-.12,0-.34-.02-.66-.06-.32-.04-.64-.07-.96-.09-.32-.02-.64-.05-.96-.09-.32-.04-.54-.06-.66-.06-.08,0-.2-.04-.36-.12-.16-.08-.28-.16-.36-.24-.08,0-.19-.09-.33-.27-.14-.18-.25-.27-.33-.27,0-.04-.04-.18-.12-.42-.04-.12-.08-.22-.12-.3v-1.62s.04-.24.12-.6c.08-.36.12-.6.12-.72.08-.16.19-.43.33-.81.14-.38.28-.78.42-1.2.14-.42.27-.81.39-1.17.12-.36.2-.6.24-.72.04-.2.24-.59.6-1.17.36-.58.6-1.05.72-1.41.08-.16.22-.48.42-.96s.42-1,.66-1.56c.24-.56.46-1.09.66-1.59.2-.5.34-.85.42-1.05.2-.48.47-.95.81-1.41.34-.46.69-.92,1.05-1.38.36-.46.7-.95,1.02-1.47.32-.52.56-1.08.72-1.68.04-.04.12-.16.24-.36.12-.2.25-.41.39-.63.14-.22.28-.44.42-.66.14-.22.25-.39.33-.51,0-.04.07-.19.21-.45.14-.26.25-.47.33-.63.12-.12.31-.33.57-.63.26-.3.43-.47.51-.51.08-.16.29-.41.63-.75l.63-.63s.18-.1.42-.3c.24-.2.4-.34.48-.42.04,0,.18-.04.42-.12.08-.04.18-.08.3-.12h2.22l.72.72c.08.04.19.18.33.42.14.24.25.4.33.48,0,.08.07.32.21.72.14.4.25.7.33.9.08.12.22.43.42.93.2.5.3.81.3.93,0,.08.03.23.09.45.06.22.13.45.21.69.08.24.15.47.21.69.06.22.09.39.09.51,0,.08.05.29.15.63.1.34.15.59.15.75.04.24.12.57.24.99.12.42.24.85.36,1.29.12.44.22.84.3,1.2.08.36.14.58.18.66,0,.2.09.45.27.75s.27.59.27.87c.08.28.17.67.27,1.17.1.5.15.79.15.87v2.16c0,.08-.05.19-.15.33-.1.14-.19.25-.27.33-.08.12-.24.36-.48.72-.24.36-.38.56-.42.6-.08.08-.29.25-.63.51-.34.26-.55.43-.63.51-.08,0-.25.04-.51.12-.26.08-.45.12-.57.12h-.3s-.14-.04-.3-.12c-.16-.08-.26-.12-.3-.12-.08-.08-.14-.18-.18-.3-.08-.24-.12-.38-.12-.42-.08-.08-.15-.24-.21-.48s-.13-.38-.21-.42c0-.16-.05-.41-.15-.75-.1-.34-.15-.55-.15-.63,0-.12,0-.33-.03-.63-.02-.3-.05-.63-.09-.99-.04-.36-.07-.7-.09-1.02-.02-.32-.03-.52-.03-.6-.08-.24-.14-.46-.18-.66s-.08-.39-.12-.57c-.04-.18-.06-.31-.06-.39-.08-.4-.25-.88-.51-1.44-.26-.56-.43-.94-.51-1.14-.04-.16-.14-.53-.3-1.11-.16-.58-.26-.97-.3-1.17-.08-.2-.17-.46-.27-.78-.1-.32-.21-.64-.33-.96-.16-.36-.3-.74-.42-1.14h-.36c0,.12,0,.36.03.72.02.36.03.75.03,1.17s0,.81.03,1.17c.02.36.03.6.03.72,0,.16-.05.47-.15.93-.1.46-.17.75-.21.87,0-.08-.05-.26-.15-.54-.1-.28-.15-.46-.15-.54-.04-.12-.08-.31-.12-.57-.04-.26-.07-.54-.09-.84-.02-.3-.05-.59-.09-.87-.04-.28-.08-.48-.12-.6l-.54,1.26v5.93l-.36.54-.48-.54v-4.85c-.08.08-.19.22-.33.42-.14.2-.29.41-.45.63-.16.22-.3.43-.42.63-.12.2-.2.36-.24.48-.04.08-.16.33-.36.75-.2.42-.42.91-.66,1.47-.24.56-.49,1.12-.75,1.68-.26.56-.45,1-.57,1.32-.04.16-.14.33-.3.51-.16.18-.26.35-.3.51-.08.24-.19.56-.33.96-.14.4-.28.8-.42,1.2-.14.4-.27.77-.39,1.11-.12.34-.2.53-.24.57,0,.08.05.28.15.6.1.32.15.54.15.66.12,0,.37.01.75.03.38.02.78.03,1.2.03h1.2c.38,0,.67-.02.87-.06.04,0,.16,0,.36-.03.2-.02.43-.05.69-.09.26-.04.51-.07.75-.09.24-.02.4-.03.48-.03.16-.04.38-.09.66-.15.28-.06.56-.11.84-.15.28-.04.52-.08.72-.12.2-.04.32-.06.36-.06h5.15c.12.08.43.2.93.36.5.16.85.28,1.05.36.08.08.29.29.63.63.34.34.55.59.63.75.04.12.15.34.33.66.18.32.27.54.27.66v3.53s-.04.18-.12.42c-.08.24-.12.4-.12.48-.04.08-.1.21-.18.39-.08.18-.18.37-.3.57-.12.2-.24.4-.36.6s-.2.36-.24.48c-.04.12-.1.24-.18.36-.08.08-.15.17-.21.27s-.11.19-.15.27c-.16.16-.36.39-.6.69-.24.3-.4.49-.48.57,0,.08-.07.19-.21.33-.14.14-.25.25-.33.33s-.22.2-.42.36c-.2.16-.41.33-.63.51-.22.18-.42.34-.6.48-.18.14-.29.23-.33.27-.08.08-.25.2-.51.36-.26.16-.43.28-.51.36-.08,0-.22.07-.42.21-.2.14-.43.28-.69.42-.26.14-.5.28-.72.42-.22.14-.35.23-.39.27-.04,0-.12.06-.24.18-.04.04-.06.08-.06.12v.9c0,.12.02.41.06.87.04.46.07.95.09,1.47.02.52.05,1,.09,1.44.04.44.06.7.06.78v4.25c0,.08-.02.23-.06.45-.04.22-.07.45-.09.69-.02.24-.05.47-.09.69-.04.22-.06.35-.06.39-.08-.12-.15-.38-.21-.78-.06-.4-.13-.68-.21-.84-.04-.32-.09-.89-.15-1.71-.06-.82-.12-1.7-.18-2.64-.06-.94-.11-1.82-.15-2.64-.04-.82-.06-1.39-.06-1.71l-.36-1.38ZM129.04,133.35v.39c0,.18.02.37.06.57.04.2.08.42.12.66,0,.16.07.39.21.69.14.3.29.53.45.69,0,.04.17.24.51.6.34.36.59.6.75.72.04,0,.14.05.3.15.16.1.26.15.3.15h3.23s.15-.04.33-.12c.18-.08.37-.17.57-.27.2-.1.4-.21.6-.33.2-.12.34-.22.42-.3.08-.04.2-.14.36-.3s.28-.26.36-.3c.04-.16.15-.39.33-.69.18-.3.27-.53.27-.69v-1.62c0-.08-.09-.29-.27-.63-.18-.34-.29-.55-.33-.63-.08-.04-.25-.15-.51-.33-.26-.18-.43-.27-.51-.27-.04-.08-.28-.15-.72-.21-.44-.06-.74-.09-.9-.09h-1.62c-.2,0-.48.01-.84.03-.36.02-.73.04-1.11.06-.38.02-.72.05-1.02.09-.3.04-.47.08-.51.12-.08,0-.2.04-.36.12-.12.04-.22.08-.3.12,0,.16-.03.44-.09.84-.06.4-.09.66-.09.78Z"/>
    </g>
  </g>
</svg>
